<svg xmlns="http://www.w3.org/2000/svg" xmlns:xlink="http://www.w3.org/1999/xlink" xmlns:lucid="lucid" width="3867" height="2415.04"><g transform="translate(3841 1481)" lucid:page-tab-id="HWEp-vi-RSFO"><path d="M-4000-1500H500v2500h-4500z" fill="#fff"/><path d="M-2100 334.5h540v215h-540z" stroke="#282c33" stroke-width="2" fill="#fff"/><path d="M-2100 417.43h540" stroke="#282c33" stroke-width="2" fill="none"/><use xlink:href="#a" transform="matrix(1,0,0,1,-2092,342.5) translate(101.40648148148182 44.65555555555554)"/><use xlink:href="#b" transform="matrix(1,0,0,1,-2088,425.43333333333317) translate(0 32)"/><use xlink:href="#c" transform="matrix(1,0,0,1,-2088,425.43333333333317) translate(34.44444444444444 32)"/><use xlink:href="#d" transform="matrix(1,0,0,1,-2088,425.43333333333317) translate(123.11111111111111 32)"/><use xlink:href="#b" transform="matrix(1,0,0,1,-2088,425.43333333333317) translate(0 80)"/><use xlink:href="#e" transform="matrix(1,0,0,1,-2088,425.43333333333317) translate(34.44444444444444 80)"/><use xlink:href="#f" transform="matrix(1,0,0,1,-2088,425.43333333333317) translate(258.6666666666667 80)"/><path d="M-2940 247.5h540v389h-540z" stroke="#282c33" stroke-width="2" fill="#fff"/><path d="M-2940 330.43h540" stroke="#282c33" stroke-width="2" fill="none"/><use xlink:href="#g" transform="matrix(1,0,0,1,-2932,255.5) translate(184.68580246913598 44.65555555555554)"/><use xlink:href="#h" transform="matrix(1,0,0,1,-2928,338.43333333333317) translate(0 32.177777777777735)"/><use xlink:href="#i" transform="matrix(1,0,0,1,-2928,338.43333333333317) translate(34.635802469135754 32.177777777777735)"/><use xlink:href="#j" transform="matrix(1,0,0,1,-2928,338.43333333333317) translate(88.15370370370358 32.177777777777735)"/><use xlink:href="#h" transform="matrix(1,0,0,1,-2928,338.43333333333317) translate(0 80.44444444444434)"/><use xlink:href="#k" transform="matrix(1,0,0,1,-2928,338.43333333333317) translate(34.635802469135754 80.44444444444434)"/><use xlink:href="#l" transform="matrix(1,0,0,1,-2928,338.43333333333317) translate(235.52345679012313 80.44444444444434)"/><use xlink:href="#h" transform="matrix(1,0,0,1,-2928,338.43333333333317) translate(0 128.71111111111094)"/><use xlink:href="#m" transform="matrix(1,0,0,1,-2928,338.43333333333317) translate(34.635802469135754 128.71111111111094)"/><use xlink:href="#n" transform="matrix(1,0,0,1,-2928,338.43333333333317) translate(152.7327160493825 128.71111111111094)"/><use xlink:href="#h" transform="matrix(1,0,0,1,-2928,338.43333333333317) translate(0 176.97777777777753)"/><use xlink:href="#o" transform="matrix(1,0,0,1,-2928,338.43333333333317) translate(34.635802469135754 176.97777777777753)"/><use xlink:href="#l" transform="matrix(1,0,0,1,-2928,338.43333333333317) translate(244.34999999999968 176.97777777777753)"/><use xlink:href="#h" transform="matrix(1,0,0,1,-2928,338.43333333333317) translate(0 225.24444444444413)"/><use xlink:href="#p" transform="matrix(1,0,0,1,-2928,338.43333333333317) translate(34.635802469135754 225.24444444444413)"/><use xlink:href="#l" transform="matrix(1,0,0,1,-2928,338.43333333333317) translate(242.22716049382683 225.24444444444413)"/><use xlink:href="#q" transform="matrix(1,0,0,1,-2928,338.43333333333317) translate(0 273.5111111111107)"/><path d="M-2103 442h-268.55" stroke="#333" stroke-width="4" fill="none"/><path d="M-2101 443.98h-2.05v-3.96h2.05z" stroke="#333" stroke-width=".05" fill="#333"/><path d="M-2395.07 442l21.52-12.73v25.46z" stroke="#333" stroke-width="4" fill="#fff"/><path d="M-1080 309.26h540v263h-540z" stroke="#282c33" stroke-width="2" fill="#fff"/><path d="M-1080 392.2h540" stroke="#282c33" stroke-width="2" fill="none"/><use xlink:href="#r" transform="matrix(1,0,0,1,-1072,317.25731211467416) translate(25.486728395062244 44.65555555555554)"/><use xlink:href="#b" transform="matrix(1,0,0,1,-1068,400.19064544800733) translate(0 32)"/><use xlink:href="#s" transform="matrix(1,0,0,1,-1068,400.19064544800733) translate(34.44444444444444 32)"/><use xlink:href="#t" transform="matrix(1,0,0,1,-1068,400.19064544800733) translate(87.66666666666667 32)"/><use xlink:href="#b" transform="matrix(1,0,0,1,-1068,400.19064544800733) translate(0 80)"/><use xlink:href="#u" transform="matrix(1,0,0,1,-1068,400.19064544800733) translate(34.44444444444444 80)"/><use xlink:href="#d" transform="matrix(1,0,0,1,-1068,400.19064544800733) translate(156.55555555555554 80)"/><use xlink:href="#b" transform="matrix(1,0,0,1,-1068,400.19064544800733) translate(0 128)"/><use xlink:href="#e" transform="matrix(1,0,0,1,-1068,400.19064544800733) translate(34.44444444444444 128)"/><use xlink:href="#v" transform="matrix(1,0,0,1,-1068,400.19064544800733) translate(258.6666666666667 128)"/><path d="M-1385.8 442.23h-171.7v-2.95h171.7zm303.3 0h-171.7v-2.95h171.7z" stroke="#333" stroke-width=".05" fill="#333"/><path d="M-1081 442.23h-1.54v-2.95h1.54z" fill="#333"/><path stroke="#333" stroke-width=".05" fill="#333"/><path d="M-1557.46 442.23h-1.54v-2.95h1.54z" fill="#333"/><path stroke="#333" stroke-width=".05" fill="#333"/><use xlink:href="#w" transform="matrix(1,0,0,1,-1131.1666666666667,396.4906454480075) translate(0 26.844444444444434)"/><use xlink:href="#w" transform="matrix(1,0,0,1,-1559.166666666667,444.75731211467416) translate(0 26.844444444444434)"/><use xlink:href="#x" transform="matrix(1,0,0,1,-1385.808024691358,416.62397878134084) translate(0.0049999999999954525 32.177777777777756)"/><path d="M-780-1460h540v311h-540z" stroke="#282c33" stroke-width="2" fill="#fff"/><path d="M-780-1377.07h540" stroke="#282c33" stroke-width="2" fill="none"/><use xlink:href="#y" transform="matrix(1,0,0,1,-772,-1452) translate(118.83703703703733 44.65555555555554)"/><use xlink:href="#b" transform="matrix(1,0,0,1,-768,-1369.0666666666668) translate(0 32)"/><use xlink:href="#s" transform="matrix(1,0,0,1,-768,-1369.0666666666668) translate(34.44444444444444 32)"/><use xlink:href="#t" transform="matrix(1,0,0,1,-768,-1369.0666666666668) translate(87.66666666666667 32)"/><use xlink:href="#b" transform="matrix(1,0,0,1,-768,-1369.0666666666668) translate(0 80)"/><use xlink:href="#u" transform="matrix(1,0,0,1,-768,-1369.0666666666668) translate(34.44444444444444 80)"/><use xlink:href="#d" transform="matrix(1,0,0,1,-768,-1369.0666666666668) translate(156.55555555555554 80)"/><use xlink:href="#b" transform="matrix(1,0,0,1,-768,-1369.0666666666668) translate(0 128)"/><use xlink:href="#z" transform="matrix(1,0,0,1,-768,-1369.0666666666668) translate(34.44444444444444 128)"/><use xlink:href="#A" transform="matrix(1,0,0,1,-768,-1369.0666666666668) translate(218.66666666666669 128)"/><use xlink:href="#b" transform="matrix(1,0,0,1,-768,-1369.0666666666668) translate(0 176)"/><use xlink:href="#B" transform="matrix(1,0,0,1,-768,-1369.0666666666668) translate(34.44444444444444 176)"/><use xlink:href="#C" transform="matrix(1,0,0,1,-768,-1369.0666666666668) translate(185.33333333333337 176)"/><path d="M-780-625.4h540v531h-540z" stroke="#282c33" stroke-width="2" fill="#fff"/><path d="M-780-542.48h540" stroke="#282c33" stroke-width="2" fill="none"/><use xlink:href="#D" transform="matrix(1,0,0,1,-772,-617.4099259438856) translate(169.19197530864218 44.65555555555554)"/><use xlink:href="#b" transform="matrix(1,0,0,1,-768,-534.4765926105524) translate(0 32)"/><use xlink:href="#s" transform="matrix(1,0,0,1,-768,-534.4765926105524) translate(34.44444444444444 32)"/><use xlink:href="#t" transform="matrix(1,0,0,1,-768,-534.4765926105524) translate(87.66666666666667 32)"/><use xlink:href="#b" transform="matrix(1,0,0,1,-768,-534.4765926105524) translate(0 80)"/><use xlink:href="#E" transform="matrix(1,0,0,1,-768,-534.4765926105524) translate(34.44444444444444 80)"/><use xlink:href="#F" transform="matrix(1,0,0,1,-768,-534.4765926105524) translate(134.33333333333331 80)"/><use xlink:href="#b" transform="matrix(1,0,0,1,-768,-534.4765926105524) translate(0 128)"/><use xlink:href="#G" transform="matrix(1,0,0,1,-768,-534.4765926105524) translate(34.44444444444444 128)"/><use xlink:href="#F" transform="matrix(1,0,0,1,-768,-534.4765926105524) translate(123.33333333333333 128)"/><use xlink:href="#b" transform="matrix(1,0,0,1,-768,-534.4765926105524) translate(0 176)"/><use xlink:href="#H" transform="matrix(1,0,0,1,-768,-534.4765926105524) translate(34.44444444444444 176)"/><use xlink:href="#I" transform="matrix(1,0,0,1,-768,-534.4765926105524) translate(174.33333333333331 176)"/><use xlink:href="#b" transform="matrix(1,0,0,1,-768,-534.4765926105524) translate(0 224)"/><use xlink:href="#J" transform="matrix(1,0,0,1,-768,-534.4765926105524) translate(34.44444444444444 224)"/><use xlink:href="#d" transform="matrix(1,0,0,1,-768,-534.4765926105524) translate(191.88888888888886 224)"/><use xlink:href="#b" transform="matrix(1,0,0,1,-768,-534.4765926105524) translate(0 272)"/><use xlink:href="#K" transform="matrix(1,0,0,1,-768,-534.4765926105524) translate(34.44444444444444 272)"/><use xlink:href="#d" transform="matrix(1,0,0,1,-768,-534.4765926105524) translate(249.66666666666669 272)"/><use xlink:href="#b" transform="matrix(1,0,0,1,-768,-534.4765926105524) translate(0 320)"/><use xlink:href="#L" transform="matrix(1,0,0,1,-768,-534.4765926105524) translate(34.44444444444444 320)"/><use xlink:href="#M" transform="matrix(1,0,0,1,-768,-534.4765926105524) translate(165.33333333333337 320)"/><use xlink:href="#b" transform="matrix(1,0,0,1,-768,-534.4765926105524) translate(0 368)"/><use xlink:href="#e" transform="matrix(1,0,0,1,-768,-534.4765926105524) translate(34.44444444444444 368)"/><use xlink:href="#d" transform="matrix(1,0,0,1,-768,-534.4765926105524) translate(258.6666666666667 368)"/><use xlink:href="#b" transform="matrix(1,0,0,1,-768,-534.4765926105524) translate(0 416)"/><use xlink:href="#N" transform="matrix(1,0,0,1,-768,-534.4765926105524) translate(34.44444444444444 416)"/><use xlink:href="#O" transform="matrix(1,0,0,1,-768,-534.4765926105524) translate(245.22222222222223 416)"/><path d="M-510-627.9v-518.6" stroke="#333" stroke-width="3" fill="none"/><path d="M-508.52-626.4h-2.96v-1.55h2.96zM-508.52-1146.46h-2.96v-1.54h2.96z" stroke="#333" stroke-width=".05" fill="#333"/><g><use xlink:href="#w" transform="matrix(1,0,0,1,-502,-666.5432592772189) translate(0 26.844444444444434)"/></g><g><use xlink:href="#P" transform="matrix(1,0,0,1,-573.9259259259259,-1148.1333333333337) translate(0 26.844444444444434)"/></g><path d="M-1827.53 887.8l.13 1.6.35 1.45.57 1.38.78 1.27.97 1.14 1.14.97 1.28.8 1.38.56 1.45.35 1.6.13h1170.46v4.96H-1818.1l-2.17-.2-2.2-.52-2.1-.87-1.94-1.17-1.74-1.48-1.48-1.73-1.18-1.93-.87-2.12-.53-2.2-.17-2.17V553h4.94zm1837.8-1250l2.2.52 2.1.87 1.94 1.17 1.74 1.48 1.48 1.73 1.18 1.94.87 2.1.53 2.2.18 2.17V888l-.18 2.18-.53 2.2-.87 2.1-1.18 1.94-1.48 1.73-1.73 1.48-1.93 1.18-2.1.88-2.2.53-2.17.18h-520.2v-4.95h520l1.6-.12 1.44-.34 1.38-.57 1.27-.8 1.13-.96.97-1.14.78-1.27.57-1.38.35-1.45.13-1.6V-347.8l-.13-1.6-.35-1.45-.57-1.38-.78-1.27-.97-1.14-1.14-.97-1.28-.8-1.38-.56-1.45-.35-1.6-.13h-244.4v-4.95H8.1z" stroke="#333" stroke-width=".05" fill="#333"/><path d="M-236.44-357.44H-239v-4.94h2.56z" fill="#333"/><path stroke="#333" stroke-width=".05" fill="#333"/><path d="M-1827.53 553.06h-4.94v-2.56h4.94z" fill="#333"/><path stroke="#333" stroke-width=".05" fill="#333"/><g><use xlink:href="#Q" transform="matrix(1,0,0,1,-239.83333333333331,-355.9099259438856) translate(0 28.622222222222213)"/></g><g><use xlink:href="#R" transform="matrix(1,0,0,1,-1897.2592592592594,550.1666666666716) translate(0 28.444444444444446)"/></g><g><use xlink:href="#S" transform="matrix(1,0,0,1,-647.4394042196043,871.7765926105523) translate(0.0049999999999954525 37.51111111111107)"/></g><path d="M-537.5 440.76h15.5a12 12 0 0 0 12-12V-91.9" stroke="#333" stroke-width="3" fill="none"/><path d="M-537.46 442.23H-539v-2.95h1.54zM-508.52-91.87h-2.96v-1.54h2.96z" stroke="#333" stroke-width=".05" fill="#333"/><g><use xlink:href="#T" transform="matrix(1,0,0,1,-539.8148148148148,444.75731211467416) translate(0 28.622222222222213)"/></g><g><use xlink:href="#Q" transform="matrix(1,0,0,1,-571.6666666666667,-93.87659261055163) translate(0 28.622222222222213)"/></g><path d="M-1820-1360h540v244h-540z" stroke="#282c33" stroke-width="2" fill="#fff"/><path d="M-1820-1277.07h540" stroke="#282c33" stroke-width="2" fill="none"/><g><use xlink:href="#U" transform="matrix(1,0,0,1,-1812,-1352) translate(110.47037037037069 44.65555555555554)"/></g><g><use xlink:href="#h" transform="matrix(1,0,0,1,-1808,-1269.0666666666668) translate(0 32.177777777777735)"/><use xlink:href="#i" transform="matrix(1,0,0,1,-1808,-1269.0666666666668) translate(34.635802469135754 32.177777777777735)"/><use xlink:href="#j" transform="matrix(1,0,0,1,-1808,-1269.0666666666668) translate(88.15370370370358 32.177777777777735)"/><use xlink:href="#h" transform="matrix(1,0,0,1,-1808,-1269.0666666666668) translate(0 80.44444444444434)"/><use xlink:href="#V" transform="matrix(1,0,0,1,-1808,-1269.0666666666668) translate(34.635802469135754 80.44444444444434)"/><use xlink:href="#l" transform="matrix(1,0,0,1,-1808,-1269.0666666666668) translate(157.4253086419751 80.44444444444434)"/><use xlink:href="#h" transform="matrix(1,0,0,1,-1808,-1269.0666666666668) translate(0 128.71111111111094)"/><use xlink:href="#W" transform="matrix(1,0,0,1,-1808,-1269.0666666666668) translate(34.635802469135754 128.71111111111094)"/><use xlink:href="#X" transform="matrix(1,0,0,1,-1808,-1269.0666666666668) translate(123.79506172839488 128.71111111111094)"/></g><path d="M-1820-840h540v244h-540z" stroke="#282c33" stroke-width="2" fill="#fff"/><path d="M-1820-757.07h540" stroke="#282c33" stroke-width="2" fill="none"/><g><use xlink:href="#Y" transform="matrix(1,0,0,1,-1812,-832) translate(183.21388888888904 44.65555555555554)"/></g><g><use xlink:href="#h" transform="matrix(1,0,0,1,-1808,-749.0666666666668) translate(0 32.177777777777735)"/><use xlink:href="#i" transform="matrix(1,0,0,1,-1808,-749.0666666666668) translate(34.635802469135754 32.177777777777735)"/><use xlink:href="#j" transform="matrix(1,0,0,1,-1808,-749.0666666666668) translate(88.15370370370358 32.177777777777735)"/><use xlink:href="#h" transform="matrix(1,0,0,1,-1808,-749.0666666666668) translate(0 80.44444444444434)"/><use xlink:href="#V" transform="matrix(1,0,0,1,-1808,-749.0666666666668) translate(34.635802469135754 80.44444444444434)"/><use xlink:href="#l" transform="matrix(1,0,0,1,-1808,-749.0666666666668) translate(157.4253086419751 80.44444444444434)"/><use xlink:href="#h" transform="matrix(1,0,0,1,-1808,-749.0666666666668) translate(0 128.71111111111094)"/><use xlink:href="#Z" transform="matrix(1,0,0,1,-1808,-749.0666666666668) translate(34.635802469135754 128.71111111111094)"/><use xlink:href="#aa" transform="matrix(1,0,0,1,-1808,-749.0666666666668) translate(226.13827160493798 128.71111111111094)"/></g><path d="M-1557.3-842.5v-271" stroke="#333" stroke-width="3" fill="none"/><path d="M-1555.8-841h-2.96v-1.54h2.95zM-1555.8-1113.46h-2.96v-1.54h2.95z" stroke="#333" stroke-width=".05" fill="#333"/><g><use xlink:href="#ab" transform="matrix(1,0,0,1,-1549.287091882368,-883.4666666666667) translate(0 28.622222222222202)"/></g><g><use xlink:href="#ac" transform="matrix(1,0,0,1,-1624.9167215119976,-1115.4666666666665) translate(0 28.622222222222202)"/></g><path d="M-1277.5-718h235.5a12 12 0 0 1 12 12v334.1a12 12 0 0 0 12 12h235.5" stroke="#333" stroke-width="3" fill="none"/><path d="M-1277.46-716.52h-1.54v-2.96h1.54zM-781-358.44h-1.54v-2.94h1.54z" stroke="#333" stroke-width=".05" fill="#333"/><g><use xlink:href="#ad" transform="matrix(1,0,0,1,-1279.8333333333333,-714.0000000000001) translate(0 28.622222222222213)"/></g><g><use xlink:href="#T" transform="matrix(1,0,0,1,-839.8148148148158,-406.8432592772189) translate(0 28.622222222222213)"/></g><path d="M-2500-1220h520v340h-520z" stroke="#282c33" stroke-width="2" fill="#fff"/><path d="M-2500-1137.07h520" stroke="#282c33" stroke-width="2" fill="none"/><g><use xlink:href="#ae" transform="matrix(1,0,0,1,-2492,-1212) translate(68.08827160493865 44.65555555555554)"/></g><g><use xlink:href="#h" transform="matrix(1,0,0,1,-2488,-1129.0666666666668) translate(0 32.177777777777735)"/><use xlink:href="#i" transform="matrix(1,0,0,1,-2488,-1129.0666666666668) translate(34.635802469135754 32.177777777777735)"/><use xlink:href="#j" transform="matrix(1,0,0,1,-2488,-1129.0666666666668) translate(88.15370370370358 32.177777777777735)"/><use xlink:href="#h" transform="matrix(1,0,0,1,-2488,-1129.0666666666668) translate(0 80.44444444444434)"/><use xlink:href="#af" transform="matrix(1,0,0,1,-2488,-1129.0666666666668) translate(34.635802469135754 80.44444444444434)"/><use xlink:href="#j" transform="matrix(1,0,0,1,-2488,-1129.0666666666668) translate(193.06666666666644 80.44444444444434)"/><use xlink:href="#h" transform="matrix(1,0,0,1,-2488,-1129.0666666666668) translate(0 128.71111111111094)"/><use xlink:href="#ag" transform="matrix(1,0,0,1,-2488,-1129.0666666666668) translate(34.635802469135754 128.71111111111094)"/><use xlink:href="#ah" transform="matrix(1,0,0,1,-2488,-1129.0666666666668) translate(219.88148148148116 128.71111111111094)"/><use xlink:href="#h" transform="matrix(1,0,0,1,-2488,-1129.0666666666668) translate(0 176.97777777777753)"/><use xlink:href="#ai" transform="matrix(1,0,0,1,-2488,-1129.0666666666668) translate(34.635802469135754 176.97777777777753)"/><use xlink:href="#ah" transform="matrix(1,0,0,1,-2488,-1129.0666666666668) translate(186.36296296296274 176.97777777777753)"/><use xlink:href="#h" transform="matrix(1,0,0,1,-2488,-1129.0666666666668) translate(0 225.24444444444413)"/><use xlink:href="#aj" transform="matrix(1,0,0,1,-2488,-1129.0666666666668) translate(34.635802469135754 225.24444444444413)"/><use xlink:href="#ak" transform="matrix(1,0,0,1,-2488,-1129.0666666666668) translate(155.19074074074052 225.24444444444413)"/></g><path d="M-1822.5-718H-2228a12 12 0 0 1-12-12v-147.5" stroke="#333" stroke-width="3" fill="none"/><path d="M-1821-716.52h-1.54v-2.96h1.54zM-2238.53-877.46h-2.94V-879h2.94z" stroke="#333" stroke-width=".05" fill="#333"/><g><use xlink:href="#T" transform="matrix(1,0,0,1,-1879.8148148148148,-764.9333333333334) translate(0 28.622222222222213)"/></g><g><use xlink:href="#ad" transform="matrix(1,0,0,1,-2301.666666666667,-879.466666666666) translate(0 28.622222222222213)"/></g><path d="M-3820-1320h779.18v340H-3820z" stroke="#282c33" stroke-width="2" fill="#fff"/><path d="M-3820-1237.07h779.18" stroke="#282c33" stroke-width="2" fill="none"/><g><use xlink:href="#al" transform="matrix(1,0,0,1,-3812,-1312) translate(62.05246913580311 44.65555555555554)"/></g><g><use xlink:href="#h" transform="matrix(1,0,0,1,-3808,-1229.0666666666668) translate(0 32.177777777777735)"/><use xlink:href="#i" transform="matrix(1,0,0,1,-3808,-1229.0666666666668) translate(34.635802469135754 32.177777777777735)"/><use xlink:href="#j" transform="matrix(1,0,0,1,-3808,-1229.0666666666668) translate(88.15370370370358 32.177777777777735)"/><use xlink:href="#h" transform="matrix(1,0,0,1,-3808,-1229.0666666666668) translate(0 80.44444444444434)"/><use xlink:href="#af" transform="matrix(1,0,0,1,-3808,-1229.0666666666668) translate(34.635802469135754 80.44444444444434)"/><use xlink:href="#j" transform="matrix(1,0,0,1,-3808,-1229.0666666666668) translate(193.06666666666644 80.44444444444434)"/><use xlink:href="#h" transform="matrix(1,0,0,1,-3808,-1229.0666666666668) translate(0 128.71111111111094)"/><use xlink:href="#am" transform="matrix(1,0,0,1,-3808,-1229.0666666666668) translate(34.635802469135754 128.71111111111094)"/><use xlink:href="#ah" transform="matrix(1,0,0,1,-3808,-1229.0666666666668) translate(231.05432098765402 128.71111111111094)"/><use xlink:href="#h" transform="matrix(1,0,0,1,-3808,-1229.0666666666668) translate(0 176.97777777777753)"/><use xlink:href="#ai" transform="matrix(1,0,0,1,-3808,-1229.0666666666668) translate(34.635802469135754 176.97777777777753)"/><use xlink:href="#ah" transform="matrix(1,0,0,1,-3808,-1229.0666666666668) translate(186.36296296296274 176.97777777777753)"/><use xlink:href="#h" transform="matrix(1,0,0,1,-3808,-1229.0666666666668) translate(0 225.24444444444413)"/><use xlink:href="#an" transform="matrix(1,0,0,1,-3808,-1229.0666666666668) translate(34.635802469135754 225.24444444444413)"/><use xlink:href="#ao" transform="matrix(1,0,0,1,-3808,-1229.0666666666668) translate(230.9425925925923 225.24444444444413)"/></g><path d="M-3200-580h700v340h-700z" stroke="#282c33" stroke-width="2" fill="#fff"/><path d="M-3200-497.07h700" stroke="#282c33" stroke-width="2" fill="none"/><g><use xlink:href="#ap" transform="matrix(1,0,0,1,-3192,-572) translate(128.8049382716054 44.65555555555554)"/></g><g><use xlink:href="#h" transform="matrix(1,0,0,1,-3188,-489.06666666666683) translate(0 32.177777777777735)"/><use xlink:href="#i" transform="matrix(1,0,0,1,-3188,-489.06666666666683) translate(34.635802469135754 32.177777777777735)"/><use xlink:href="#j" transform="matrix(1,0,0,1,-3188,-489.06666666666683) translate(88.15370370370358 32.177777777777735)"/><use xlink:href="#h" transform="matrix(1,0,0,1,-3188,-489.06666666666683) translate(0 80.44444444444434)"/><use xlink:href="#aq" transform="matrix(1,0,0,1,-3188,-489.06666666666683) translate(34.635802469135754 80.44444444444434)"/><use xlink:href="#ar" transform="matrix(1,0,0,1,-3188,-489.06666666666683) translate(230.9425925925923 80.44444444444434)"/><use xlink:href="#h" transform="matrix(1,0,0,1,-3188,-489.06666666666683) translate(0 128.71111111111094)"/><use xlink:href="#aj" transform="matrix(1,0,0,1,-3188,-489.06666666666683) translate(34.635802469135754 128.71111111111094)"/><use xlink:href="#j" transform="matrix(1,0,0,1,-3188,-489.06666666666683) translate(155.19074074074052 128.71111111111094)"/><use xlink:href="#h" transform="matrix(1,0,0,1,-3188,-489.06666666666683) translate(0 176.97777777777753)"/><use xlink:href="#as" transform="matrix(1,0,0,1,-3188,-489.06666666666683) translate(34.635802469135754 176.97777777777753)"/><use xlink:href="#at" transform="matrix(1,0,0,1,-3188,-489.06666666666683) translate(246.58456790123427 176.97777777777753)"/><use xlink:href="#h" transform="matrix(1,0,0,1,-3188,-489.06666666666683) translate(0 225.24444444444413)"/><use xlink:href="#au" transform="matrix(1,0,0,1,-3188,-489.06666666666683) translate(34.635802469135754 225.24444444444413)"/><use xlink:href="#av" transform="matrix(1,0,0,1,-3188,-489.06666666666683) translate(414.1771604938266 225.24444444444413)"/></g><path d="M-1550-593.5V-422a12 12 0 0 1-12 12h-935.5" stroke="#333" stroke-width="3" fill="none"/><path d="M-1548.53-593.46h-2.94V-595h2.94zM-2497.46-408.52h-1.54v-2.96h1.54z" stroke="#333" stroke-width=".05" fill="#333"/><g><use xlink:href="#T" transform="matrix(1,0,0,1,-1617.6296296296296,-595.4666666666667) translate(0 28.622222222222213)"/></g><g><use xlink:href="#Q" transform="matrix(1,0,0,1,-2499.8333333333344,-405.99999999999994) translate(0 28.622222222222213)"/></g><path d="M-3430.4-977.5V-422a12 12 0 0 0 12 12h215.9" stroke="#333" stroke-width="3" fill="none"/><path d="M-3428.94-977.46h-2.95V-979h2.96zM-3201-408.52h-1.54v-2.96h1.54z" stroke="#333" stroke-width=".05" fill="#333"/><g><use xlink:href="#Q" transform="matrix(1,0,0,1,-3492.078077823424,-979.4666666666667) translate(0 28.622222222222213)"/></g><g><use xlink:href="#T" transform="matrix(1,0,0,1,-3259.814814814814,-456.9333333333333) translate(0 28.622222222222213)"/></g><defs><path fill="#282c33" d="M24-248c93 1 206-16 204 79-1 75-69 88-152 82V0H24v-248zm52 121c47 0 100 7 100-41 0-47-54-39-100-39v80" id="aw"/><path fill="#282c33" d="M199 0l-22-63H83L61 0H9l90-248h61L250 0h-51zm-33-102l-36-108c-10 38-24 72-36 108h72" id="ax"/><path fill="#282c33" d="M136-208V0H84v-208H4v-40h212v40h-80" id="ay"/><path fill="#282c33" d="M24 0v-248h52V0H24" id="az"/><path fill="#282c33" d="M67-125c0 53 21 87 73 88 37 1 54-22 65-47l45 17C233-25 199 4 140 4 58 4 20-42 15-125 8-235 124-281 211-232c18 10 29 29 36 50l-46 12c-8-25-30-41-62-41-52 0-71 34-72 86" id="aA"/><path fill="#282c33" d="M175 0L67-191c6 58 2 128 3 191H24v-248h59L193-55c-6-58-2-129-3-193h46V0h-61" id="aB"/><g id="a"><use transform="matrix(0.15493827160493795,0,0,0.15493827160493795,0,0)" xlink:href="#aw"/><use transform="matrix(0.15493827160493795,0,0,0.15493827160493795,33.00185185185178,0)" xlink:href="#ax"/><use transform="matrix(0.15493827160493795,0,0,0.15493827160493795,68.94753086419739,0)" xlink:href="#ay"/><use transform="matrix(0.15493827160493795,0,0,0.15493827160493795,102.8790123456788,0)" xlink:href="#az"/><use transform="matrix(0.15493827160493795,0,0,0.15493827160493795,118.3728395061726,0)" xlink:href="#aA"/><use transform="matrix(0.15493827160493795,0,0,0.15493827160493795,158.50185185185154,0)" xlink:href="#az"/><use transform="matrix(0.15493827160493795,0,0,0.15493827160493795,173.9956790123453,0)" xlink:href="#aw"/><use transform="matrix(0.15493827160493795,0,0,0.15493827160493795,206.9975308641971,0)" xlink:href="#ax"/><use transform="matrix(0.15493827160493795,0,0,0.15493827160493795,247.12654320987608,0)" xlink:href="#aB"/><use transform="matrix(0.15493827160493795,0,0,0.15493827160493795,287.25555555555496,0)" xlink:href="#ay"/></g><path fill="#282c33" d="M118-107v75H92v-75H18v-26h74v-75h26v75h74v26h-74" id="aC"/><use transform="matrix(0.1111111111111111,0,0,0.1111111111111111,0,0)" xlink:href="#aC" id="b"/><path fill="#282c33" d="M114-163C36-179 61-72 57 0H25l-1-190h30c1 12-1 29 2 39 6-27 23-49 58-41v29" id="aD"/><path fill="#282c33" d="M100-194c62-1 85 37 85 99 1 63-27 99-86 99S16-35 15-95c0-66 28-99 85-99zM99-20c44 1 53-31 53-75 0-43-8-75-51-75s-53 32-53 75 10 74 51 75" id="aE"/><path fill="#282c33" d="M24 0v-261h32V0H24" id="aF"/><path fill="#282c33" d="M100-194c63 0 86 42 84 106H49c0 40 14 67 53 68 26 1 43-12 49-29l28 8c-11 28-37 45-77 45C44 4 14-33 15-96c1-61 26-98 85-98zm52 81c6-60-76-77-97-28-3 7-6 17-6 28h103" id="aG"/><path fill="#282c33" d="M33-154v-36h34v36H33zM33 0v-36h34V0H33" id="aH"/><g id="c"><use transform="matrix(0.1111111111111111,0,0,0.1111111111111111,0,0)" xlink:href="#aD"/><use transform="matrix(0.1111111111111111,0,0,0.1111111111111111,13.222222222222221,0)" xlink:href="#aE"/><use transform="matrix(0.1111111111111111,0,0,0.1111111111111111,35.44444444444444,0)" xlink:href="#aF"/><use transform="matrix(0.1111111111111111,0,0,0.1111111111111111,44.22222222222222,0)" xlink:href="#aG"/><use transform="matrix(0.1111111111111111,0,0,0.1111111111111111,66.44444444444444,0)" xlink:href="#aH"/></g><path fill="#282c33" d="M135-143c-3-34-86-38-87 0 15 53 115 12 119 90S17 21 10-45l28-5c4 36 97 45 98 0-10-56-113-15-118-90-4-57 82-63 122-42 12 7 21 19 24 35" id="aI"/><path fill="#282c33" d="M59-47c-2 24 18 29 38 22v24C64 9 27 4 27-40v-127H5v-23h24l9-43h21v43h35v23H59v120" id="aJ"/><g id="d"><use transform="matrix(0.1111111111111111,0,0,0.1111111111111111,0,0)" xlink:href="#aI"/><use transform="matrix(0.1111111111111111,0,0,0.1111111111111111,20,0)" xlink:href="#aJ"/><use transform="matrix(0.1111111111111111,0,0,0.1111111111111111,31.11111111111111,0)" xlink:href="#aD"/></g><path fill="#282c33" d="M85-194c31 0 48 13 60 33l-1-100h32l1 261h-30c-2-10 0-23-3-31C134-8 116 4 85 4 32 4 16-35 15-94c0-66 23-100 70-100zm9 24c-40 0-46 34-46 75 0 40 6 74 45 74 42 0 51-32 51-76 0-42-9-74-50-73" id="aK"/><path fill="#282c33" d="M115-194c55 1 70 41 70 98S169 2 115 4C84 4 66-9 55-30l1 105H24l-1-265h31l2 30c10-21 28-34 59-34zm-8 174c40 0 45-34 45-75s-6-73-45-74c-42 0-51 32-51 76 0 43 10 73 51 73" id="aL"/><path fill="#282c33" d="M141-36C126-15 110 5 73 4 37 3 15-17 15-53c-1-64 63-63 125-63 3-35-9-54-41-54-24 1-41 7-42 31l-33-3c5-37 33-52 76-52 45 0 72 20 72 64v82c-1 20 7 32 28 27v20c-31 9-61-2-59-35zM48-53c0 20 12 33 32 33 41-3 63-29 60-74-43 2-92-5-92 41" id="aM"/><path fill="#282c33" d="M210-169c-67 3-38 105-44 169h-31v-121c0-29-5-50-35-48C34-165 62-65 56 0H25l-1-190h30c1 10-1 24 2 32 10-44 99-50 107 0 11-21 27-35 58-36 85-2 47 119 55 194h-31v-121c0-29-5-49-35-48" id="aN"/><path fill="#282c33" d="M117-194c89-4 53 116 60 194h-32v-121c0-31-8-49-39-48C34-167 62-67 57 0H25l-1-190h30c1 10-1 24 2 32 11-22 29-35 61-36" id="aO"/><g id="e"><use transform="matrix(0.1111111111111111,0,0,0.1111111111111111,0,0)" xlink:href="#aK"/><use transform="matrix(0.1111111111111111,0,0,0.1111111111111111,22.22222222222222,0)" xlink:href="#aG"/><use transform="matrix(0.1111111111111111,0,0,0.1111111111111111,44.44444444444444,0)" xlink:href="#aL"/><use transform="matrix(0.1111111111111111,0,0,0.1111111111111111,66.66666666666666,0)" xlink:href="#aM"/><use transform="matrix(0.1111111111111111,0,0,0.1111111111111111,88.88888888888889,0)" xlink:href="#aD"/><use transform="matrix(0.1111111111111111,0,0,0.1111111111111111,102.11111111111111,0)" xlink:href="#aJ"/><use transform="matrix(0.1111111111111111,0,0,0.1111111111111111,113.22222222222223,0)" xlink:href="#aN"/><use transform="matrix(0.1111111111111111,0,0,0.1111111111111111,146.44444444444446,0)" xlink:href="#aG"/><use transform="matrix(0.1111111111111111,0,0,0.1111111111111111,168.66666666666669,0)" xlink:href="#aO"/><use transform="matrix(0.1111111111111111,0,0,0.1111111111111111,190.8888888888889,0)" xlink:href="#aJ"/><use transform="matrix(0.1111111111111111,0,0,0.1111111111111111,202.00000000000003,0)" xlink:href="#aH"/></g><g id="f"><use transform="matrix(0.1111111111111111,0,0,0.1111111111111111,0,0)" xlink:href="#aI"/><use transform="matrix(0.1111111111111111,0,0,0.1111111111111111,20,0)" xlink:href="#aJ"/><use transform="matrix(0.1111111111111111,0,0,0.1111111111111111,31.11111111111111,0)" xlink:href="#aD"/></g><path fill="#282c33" d="M238-95c0 69-44 99-111 99C63 4 22-25 22-93v-155h51v151c-1 38 19 59 55 60 90 1 49-130 58-211h52v153" id="aP"/><path fill="#282c33" d="M169-182c-1-43-94-46-97-3 18 66 151 10 154 114 3 95-165 93-204 36-6-8-10-19-12-30l50-8c3 46 112 56 116 5-17-69-150-10-154-114-4-87 153-88 188-35 5 8 8 18 10 28" id="aQ"/><path fill="#282c33" d="M24 0v-248h195v40H76v63h132v40H76v65h150V0H24" id="aR"/><path fill="#282c33" d="M240-174c0 40-23 61-54 70L253 0h-59l-57-94H76V0H24v-248c93 4 217-23 216 74zM76-134c48-2 112 12 112-38 0-48-66-32-112-35v73" id="aS"/><g id="g"><use transform="matrix(0.15493827160493795,0,0,0.15493827160493795,0,0)" xlink:href="#aP"/><use transform="matrix(0.15493827160493795,0,0,0.15493827160493795,40.12901234567893,0)" xlink:href="#aQ"/><use transform="matrix(0.15493827160493795,0,0,0.15493827160493795,77.31419753086404,0)" xlink:href="#aR"/><use transform="matrix(0.15493827160493795,0,0,0.15493827160493795,114.49938271604914,0)" xlink:href="#aS"/></g><use transform="matrix(0.11172839506172824,0,0,0.11172839506172824,0,0)" xlink:href="#aC" id="h"/><path fill="#282c33" d="M24-231v-30h32v30H24zM24 0v-190h32V0H24" id="aT"/><g id="i"><use transform="matrix(0.11172839506172824,0,0,0.11172839506172824,0,0)" xlink:href="#aT"/><use transform="matrix(0.11172839506172824,0,0,0.11172839506172824,8.826543209876531,0)" xlink:href="#aK"/><use transform="matrix(0.11172839506172824,0,0,0.11172839506172824,31.172222222222178,0)" xlink:href="#aH"/></g><g id="j"><use transform="matrix(0.11172839506172824,0,0,0.11172839506172824,0,0)" xlink:href="#aT"/><use transform="matrix(0.11172839506172824,0,0,0.11172839506172824,8.826543209876531,0)" xlink:href="#aO"/><use transform="matrix(0.11172839506172824,0,0,0.11172839506172824,31.172222222222178,0)" xlink:href="#aJ"/></g><path fill="#282c33" d="M84 4C-5 8 30-112 23-190h32v120c0 31 7 50 39 49 72-2 45-101 50-169h31l1 190h-30c-1-10 1-25-2-33-11 22-28 36-60 37" id="aU"/><g id="k"><use transform="matrix(0.11172839506172824,0,0,0.11172839506172824,0,0)" xlink:href="#aU"/><use transform="matrix(0.11172839506172824,0,0,0.11172839506172824,22.34567901234565,0)" xlink:href="#aI"/><use transform="matrix(0.11172839506172824,0,0,0.11172839506172824,42.45679012345673,0)" xlink:href="#aG"/><use transform="matrix(0.11172839506172824,0,0,0.11172839506172824,64.80246913580237,0)" xlink:href="#aD"/><use transform="matrix(0.11172839506172824,0,0,0.11172839506172824,78.09814814814803,0)" xlink:href="#aO"/><use transform="matrix(0.11172839506172824,0,0,0.11172839506172824,100.44382716049367,0)" xlink:href="#aM"/><use transform="matrix(0.11172839506172824,0,0,0.11172839506172824,122.78950617283931,0)" xlink:href="#aN"/><use transform="matrix(0.11172839506172824,0,0,0.11172839506172824,156.19629629629605,0)" xlink:href="#aG"/><use transform="matrix(0.11172839506172824,0,0,0.11172839506172824,178.5419753086417,0)" xlink:href="#aH"/></g><g id="l"><use transform="matrix(0.11172839506172824,0,0,0.11172839506172824,0,0)" xlink:href="#aI"/><use transform="matrix(0.11172839506172824,0,0,0.11172839506172824,20.111111111111082,0)" xlink:href="#aJ"/><use transform="matrix(0.11172839506172824,0,0,0.11172839506172824,31.283950617283907,0)" xlink:href="#aD"/></g><g id="m"><use transform="matrix(0.11172839506172824,0,0,0.11172839506172824,0,0)" xlink:href="#aG"/><use transform="matrix(0.11172839506172824,0,0,0.11172839506172824,22.34567901234565,0)" xlink:href="#aN"/><use transform="matrix(0.11172839506172824,0,0,0.11172839506172824,55.75246913580239,0)" xlink:href="#aM"/><use transform="matrix(0.11172839506172824,0,0,0.11172839506172824,78.09814814814804,0)" xlink:href="#aT"/><use transform="matrix(0.11172839506172824,0,0,0.11172839506172824,86.92469135802457,0)" xlink:href="#aF"/><use transform="matrix(0.11172839506172824,0,0,0.11172839506172824,95.75123456790111,0)" xlink:href="#aH"/></g><g id="n"><use transform="matrix(0.11172839506172824,0,0,0.11172839506172824,0,0)" xlink:href="#aG"/><use transform="matrix(0.11172839506172824,0,0,0.11172839506172824,22.34567901234565,0)" xlink:href="#aN"/><use transform="matrix(0.11172839506172824,0,0,0.11172839506172824,55.75246913580239,0)" xlink:href="#aM"/><use transform="matrix(0.11172839506172824,0,0,0.11172839506172824,78.09814814814804,0)" xlink:href="#aT"/><use transform="matrix(0.11172839506172824,0,0,0.11172839506172824,86.92469135802457,0)" xlink:href="#aF"/></g><path fill="#282c33" d="M101-234c-31-9-42 10-38 44h38v23H63V0H32v-167H5v-23h27c-7-52 17-82 69-68v24" id="aV"/><path fill="#282c33" d="M-5 72V49h209v23H-5" id="aW"/><g id="o"><use transform="matrix(0.11172839506172824,0,0,0.11172839506172824,0,0)" xlink:href="#aV"/><use transform="matrix(0.11172839506172824,0,0,0.11172839506172824,11.172839506172824,0)" xlink:href="#aT"/><use transform="matrix(0.11172839506172824,0,0,0.11172839506172824,19.999382716049354,0)" xlink:href="#aD"/><use transform="matrix(0.11172839506172824,0,0,0.11172839506172824,33.29506172839501,0)" xlink:href="#aI"/><use transform="matrix(0.11172839506172824,0,0,0.11172839506172824,53.4061728395061,0)" xlink:href="#aJ"/><use transform="matrix(0.11172839506172824,0,0,0.11172839506172824,64.57901234567892,0)" xlink:href="#aW"/><use transform="matrix(0.11172839506172824,0,0,0.11172839506172824,86.92469135802457,0)" xlink:href="#aO"/><use transform="matrix(0.11172839506172824,0,0,0.11172839506172824,109.27037037037022,0)" xlink:href="#aM"/><use transform="matrix(0.11172839506172824,0,0,0.11172839506172824,131.61604938271586,0)" xlink:href="#aN"/><use transform="matrix(0.11172839506172824,0,0,0.11172839506172824,165.0228395061726,0)" xlink:href="#aG"/><use transform="matrix(0.11172839506172824,0,0,0.11172839506172824,187.36851851851824,0)" xlink:href="#aH"/></g><g id="p"><use transform="matrix(0.11172839506172824,0,0,0.11172839506172824,0,0)" xlink:href="#aF"/><use transform="matrix(0.11172839506172824,0,0,0.11172839506172824,8.826543209876531,0)" xlink:href="#aM"/><use transform="matrix(0.11172839506172824,0,0,0.11172839506172824,31.172222222222178,0)" xlink:href="#aI"/><use transform="matrix(0.11172839506172824,0,0,0.11172839506172824,51.28333333333326,0)" xlink:href="#aJ"/><use transform="matrix(0.11172839506172824,0,0,0.11172839506172824,62.45617283950609,0)" xlink:href="#aW"/><use transform="matrix(0.11172839506172824,0,0,0.11172839506172824,84.80185185185172,0)" xlink:href="#aO"/><use transform="matrix(0.11172839506172824,0,0,0.11172839506172824,107.14753086419736,0)" xlink:href="#aM"/><use transform="matrix(0.11172839506172824,0,0,0.11172839506172824,129.493209876543,0)" xlink:href="#aN"/><use transform="matrix(0.11172839506172824,0,0,0.11172839506172824,162.89999999999975,0)" xlink:href="#aG"/><use transform="matrix(0.11172839506172824,0,0,0.11172839506172824,185.2456790123454,0)" xlink:href="#aH"/></g><path fill="#282c33" d="M67-125c0 54 23 88 75 88 28 0 53-7 68-21v-34h-60v-39h108v91C232-14 192 4 140 4 58 4 20-42 15-125 8-236 126-280 215-234c19 10 29 26 37 47l-47 15c-11-23-29-39-63-39-53 1-75 33-75 86" id="aX"/><path fill="#282c33" d="M140-251c80 0 125 45 125 126S219 4 139 4C58 4 15-44 15-125s44-126 125-126zm-1 214c52 0 73-35 73-88 0-50-21-86-72-86-52 0-73 35-73 86s22 88 72 88" id="aY"/><path fill="#282c33" d="M-4 44V30h207v14H-4" id="aZ"/><g id="r"><use transform="matrix(0.15493827160493795,0,0,0.15493827160493795,0,0)" xlink:href="#aX"/><use transform="matrix(0.15493827160493795,0,0,0.15493827160493795,43.38271604938262,0)" xlink:href="#aS"/><use transform="matrix(0.15493827160493795,0,0,0.15493827160493795,83.51172839506155,0)" xlink:href="#aY"/><use transform="matrix(0.15493827160493795,0,0,0.15493827160493795,126.89444444444418,0)" xlink:href="#aP"/><use transform="matrix(0.15493827160493795,0,0,0.15493827160493795,167.0234567901231,0)" xlink:href="#aw"/><use transform="matrix(0.15493827160493795,0,0,0.15493827160493795,204.2086419753082,0)" xlink:href="#aZ"/><use transform="matrix(0.15493827160493795,0,0,0.15493827160493795,235.1962962962958,0)" xlink:href="#aS"/><use transform="matrix(0.15493827160493795,0,0,0.15493827160493795,275.32530864197474,0)" xlink:href="#aP"/><use transform="matrix(0.15493827160493795,0,0,0.15493827160493795,315.45432098765366,0)" xlink:href="#aB"/><use transform="matrix(0.15493827160493795,0,0,0.15493827160493795,355.5833333333326,0)" xlink:href="#aB"/><use transform="matrix(0.15493827160493795,0,0,0.15493827160493795,395.71234567901155,0)" xlink:href="#aR"/><use transform="matrix(0.15493827160493795,0,0,0.15493827160493795,432.89753086419665,0)" xlink:href="#aS"/></g><g id="s"><use transform="matrix(0.1111111111111111,0,0,0.1111111111111111,0,0)" xlink:href="#aT"/><use transform="matrix(0.1111111111111111,0,0,0.1111111111111111,8.777777777777777,0)" xlink:href="#aK"/><use transform="matrix(0.1111111111111111,0,0,0.1111111111111111,31,0)" xlink:href="#aH"/></g><g id="t"><use transform="matrix(0.1111111111111111,0,0,0.1111111111111111,0,0)" xlink:href="#aT"/><use transform="matrix(0.1111111111111111,0,0,0.1111111111111111,8.777777777777777,0)" xlink:href="#aO"/><use transform="matrix(0.1111111111111111,0,0,0.1111111111111111,31,0)" xlink:href="#aJ"/></g><g id="u"><use transform="matrix(0.1111111111111111,0,0,0.1111111111111111,0,0)" xlink:href="#aO"/><use transform="matrix(0.1111111111111111,0,0,0.1111111111111111,22.22222222222222,0)" xlink:href="#aM"/><use transform="matrix(0.1111111111111111,0,0,0.1111111111111111,44.44444444444444,0)" xlink:href="#aN"/><use transform="matrix(0.1111111111111111,0,0,0.1111111111111111,77.66666666666666,0)" xlink:href="#aG"/><use transform="matrix(0.1111111111111111,0,0,0.1111111111111111,99.88888888888889,0)" xlink:href="#aH"/></g><g id="v"><use transform="matrix(0.1111111111111111,0,0,0.1111111111111111,0,0)" xlink:href="#aI"/><use transform="matrix(0.1111111111111111,0,0,0.1111111111111111,20,0)" xlink:href="#aJ"/><use transform="matrix(0.1111111111111111,0,0,0.1111111111111111,31.11111111111111,0)" xlink:href="#aD"/></g><path d="M101-251c68 0 85 55 85 127S166 4 100 4C33 4 14-52 14-124c0-73 17-127 87-127zm-1 229c47 0 54-49 54-102s-4-102-53-102c-51 0-55 48-55 102 0 53 5 102 54 102" id="ba"/><path d="M33 0v-38h34V0H33" id="bb"/><path d="M80-196l47-18 7 23-49 13 32 44-20 13-27-46-27 45-21-12 33-44-49-13 8-23 47 19-2-53h23" id="bc"/><g id="w"><use transform="matrix(0.09320987654320984,0,0,0.09320987654320984,0,0)" xlink:href="#ba"/><use transform="matrix(0.09320987654320984,0,0,0.09320987654320984,18.641975308641968,0)" xlink:href="#bb"/><use transform="matrix(0.09320987654320984,0,0,0.09320987654320984,27.96296296296295,0)" xlink:href="#bb"/><use transform="matrix(0.09320987654320984,0,0,0.09320987654320984,37.283950617283935,0)" xlink:href="#bc"/></g><path fill="#282c33" d="M233-177c-1 41-23 64-60 70L243 0h-38l-65-103H63V0H30v-248c88 3 205-21 203 71zM63-129c60-2 137 13 137-47 0-61-80-42-137-45v92" id="bd"/><g id="x"><use transform="matrix(0.11172839506172831,0,0,0.11172839506172831,0,0)" xlink:href="#bd"/><use transform="matrix(0.11172839506172831,0,0,0.11172839506172831,28.937654320987633,0)" xlink:href="#aU"/><use transform="matrix(0.11172839506172831,0,0,0.11172839506172831,51.283333333333296,0)" xlink:href="#aO"/><use transform="matrix(0.11172839506172831,0,0,0.11172839506172831,73.62901234567896,0)" xlink:href="#aO"/><use transform="matrix(0.11172839506172831,0,0,0.11172839506172831,95.97469135802461,0)" xlink:href="#aG"/><use transform="matrix(0.11172839506172831,0,0,0.11172839506172831,118.32037037037028,0)" xlink:href="#aD"/></g><path fill="#282c33" d="M24 0v-248h52v208h133V0H24" id="be"/><g id="y"><use transform="matrix(0.15493827160493795,0,0,0.15493827160493795,0,0)" xlink:href="#be"/><use transform="matrix(0.15493827160493795,0,0,0.15493827160493795,33.93148148148141,0)" xlink:href="#aY"/><use transform="matrix(0.15493827160493795,0,0,0.15493827160493795,77.31419753086404,0)" xlink:href="#aA"/><use transform="matrix(0.15493827160493795,0,0,0.15493827160493795,117.44320987654297,0)" xlink:href="#ax"/><use transform="matrix(0.15493827160493795,0,0,0.15493827160493795,153.38888888888857,0)" xlink:href="#ay"/><use transform="matrix(0.15493827160493795,0,0,0.15493827160493795,187.32037037036997,0)" xlink:href="#az"/><use transform="matrix(0.15493827160493795,0,0,0.15493827160493795,202.81419753086377,0)" xlink:href="#aY"/><use transform="matrix(0.15493827160493795,0,0,0.15493827160493795,246.1969135802464,0)" xlink:href="#aB"/></g><path fill="#282c33" d="M177-190C167-65 218 103 67 71c-23-6-38-20-44-43l32-5c15 47 100 32 89-28v-30C133-14 115 1 83 1 29 1 15-40 15-95c0-56 16-97 71-98 29-1 48 16 59 35 1-10 0-23 2-32h30zM94-22c36 0 50-32 50-73 0-42-14-75-50-75-39 0-46 34-46 75s6 73 46 73" id="bf"/><g id="z"><use transform="matrix(0.1111111111111111,0,0,0.1111111111111111,0,0)" xlink:href="#aF"/><use transform="matrix(0.1111111111111111,0,0,0.1111111111111111,8.777777777777777,0)" xlink:href="#aE"/><use transform="matrix(0.1111111111111111,0,0,0.1111111111111111,31,0)" xlink:href="#aO"/><use transform="matrix(0.1111111111111111,0,0,0.1111111111111111,53.22222222222222,0)" xlink:href="#bf"/><use transform="matrix(0.1111111111111111,0,0,0.1111111111111111,75.44444444444444,0)" xlink:href="#aT"/><use transform="matrix(0.1111111111111111,0,0,0.1111111111111111,84.22222222222221,0)" xlink:href="#aJ"/><use transform="matrix(0.1111111111111111,0,0,0.1111111111111111,95.33333333333333,0)" xlink:href="#aU"/><use transform="matrix(0.1111111111111111,0,0,0.1111111111111111,117.55555555555554,0)" xlink:href="#aK"/><use transform="matrix(0.1111111111111111,0,0,0.1111111111111111,139.77777777777777,0)" xlink:href="#aG"/><use transform="matrix(0.1111111111111111,0,0,0.1111111111111111,162,0)" xlink:href="#aH"/></g><g id="A"><use transform="matrix(0.1111111111111111,0,0,0.1111111111111111,0,0)" xlink:href="#aV"/><use transform="matrix(0.1111111111111111,0,0,0.1111111111111111,11.11111111111111,0)" xlink:href="#aF"/><use transform="matrix(0.1111111111111111,0,0,0.1111111111111111,19.888888888888886,0)" xlink:href="#aE"/><use transform="matrix(0.1111111111111111,0,0,0.1111111111111111,42.11111111111111,0)" xlink:href="#aM"/><use transform="matrix(0.1111111111111111,0,0,0.1111111111111111,64.33333333333333,0)" xlink:href="#aJ"/></g><g id="B"><use transform="matrix(0.1111111111111111,0,0,0.1111111111111111,0,0)" xlink:href="#aF"/><use transform="matrix(0.1111111111111111,0,0,0.1111111111111111,8.777777777777777,0)" xlink:href="#aM"/><use transform="matrix(0.1111111111111111,0,0,0.1111111111111111,31,0)" xlink:href="#aJ"/><use transform="matrix(0.1111111111111111,0,0,0.1111111111111111,42.111111111111114,0)" xlink:href="#aT"/><use transform="matrix(0.1111111111111111,0,0,0.1111111111111111,50.88888888888889,0)" xlink:href="#aJ"/><use transform="matrix(0.1111111111111111,0,0,0.1111111111111111,62,0)" xlink:href="#aU"/><use transform="matrix(0.1111111111111111,0,0,0.1111111111111111,84.22222222222223,0)" xlink:href="#aK"/><use transform="matrix(0.1111111111111111,0,0,0.1111111111111111,106.44444444444446,0)" xlink:href="#aG"/><use transform="matrix(0.1111111111111111,0,0,0.1111111111111111,128.66666666666669,0)" xlink:href="#aH"/></g><g id="C"><use transform="matrix(0.1111111111111111,0,0,0.1111111111111111,0,0)" xlink:href="#aV"/><use transform="matrix(0.1111111111111111,0,0,0.1111111111111111,11.11111111111111,0)" xlink:href="#aF"/><use transform="matrix(0.1111111111111111,0,0,0.1111111111111111,19.888888888888886,0)" xlink:href="#aE"/><use transform="matrix(0.1111111111111111,0,0,0.1111111111111111,42.11111111111111,0)" xlink:href="#aM"/><use transform="matrix(0.1111111111111111,0,0,0.1111111111111111,64.33333333333333,0)" xlink:href="#aJ"/></g><path fill="#282c33" d="M147 0H94L2-248h55l64 206c17-72 42-137 63-206h54" id="bg"/><g id="D"><use transform="matrix(0.15493827160493795,0,0,0.15493827160493795,0,0)" xlink:href="#aR"/><use transform="matrix(0.15493827160493795,0,0,0.15493827160493795,37.185185185185105,0)" xlink:href="#bg"/><use transform="matrix(0.15493827160493795,0,0,0.15493827160493795,74.37037037037021,0)" xlink:href="#aR"/><use transform="matrix(0.15493827160493795,0,0,0.15493827160493795,111.55555555555533,0)" xlink:href="#aB"/><use transform="matrix(0.15493827160493795,0,0,0.15493827160493795,151.68456790123423,0)" xlink:href="#ay"/></g><g id="E"><use transform="matrix(0.1111111111111111,0,0,0.1111111111111111,0,0)" xlink:href="#aI"/><use transform="matrix(0.1111111111111111,0,0,0.1111111111111111,20,0)" xlink:href="#aJ"/><use transform="matrix(0.1111111111111111,0,0,0.1111111111111111,31.11111111111111,0)" xlink:href="#aM"/><use transform="matrix(0.1111111111111111,0,0,0.1111111111111111,53.33333333333333,0)" xlink:href="#aD"/><use transform="matrix(0.1111111111111111,0,0,0.1111111111111111,66.55555555555554,0)" xlink:href="#aJ"/><use transform="matrix(0.1111111111111111,0,0,0.1111111111111111,77.66666666666666,0)" xlink:href="#aH"/></g><g id="F"><use transform="matrix(0.1111111111111111,0,0,0.1111111111111111,0,0)" xlink:href="#aK"/><use transform="matrix(0.1111111111111111,0,0,0.1111111111111111,22.22222222222222,0)" xlink:href="#aM"/><use transform="matrix(0.1111111111111111,0,0,0.1111111111111111,44.44444444444444,0)" xlink:href="#aJ"/><use transform="matrix(0.1111111111111111,0,0,0.1111111111111111,55.55555555555556,0)" xlink:href="#aG"/><use transform="matrix(0.1111111111111111,0,0,0.1111111111111111,77.77777777777777,0)" xlink:href="#aJ"/><use transform="matrix(0.1111111111111111,0,0,0.1111111111111111,88.88888888888889,0)" xlink:href="#aT"/><use transform="matrix(0.1111111111111111,0,0,0.1111111111111111,97.66666666666666,0)" xlink:href="#aN"/><use transform="matrix(0.1111111111111111,0,0,0.1111111111111111,130.88888888888889,0)" xlink:href="#aG"/></g><g id="G"><use transform="matrix(0.1111111111111111,0,0,0.1111111111111111,0,0)" xlink:href="#aG"/><use transform="matrix(0.1111111111111111,0,0,0.1111111111111111,22.22222222222222,0)" xlink:href="#aO"/><use transform="matrix(0.1111111111111111,0,0,0.1111111111111111,44.44444444444444,0)" xlink:href="#aK"/><use transform="matrix(0.1111111111111111,0,0,0.1111111111111111,66.66666666666666,0)" xlink:href="#aH"/></g><path fill="#282c33" d="M115-194c53 0 69 39 70 98 0 66-23 100-70 100C84 3 66-7 56-30L54 0H23l1-261h32v101c10-23 28-34 59-34zm-8 174c40 0 45-34 45-75 0-40-5-75-45-74-42 0-51 32-51 76 0 43 10 73 51 73" id="bh"/><path fill="#282c33" d="M106-169C34-169 62-67 57 0H25v-261h32l-1 103c12-21 28-36 61-36 89 0 53 116 60 194h-32v-121c2-32-8-49-39-48" id="bi"/><g id="H"><use transform="matrix(0.1111111111111111,0,0,0.1111111111111111,0,0)" xlink:href="#aL"/><use transform="matrix(0.1111111111111111,0,0,0.1111111111111111,22.22222222222222,0)" xlink:href="#aU"/><use transform="matrix(0.1111111111111111,0,0,0.1111111111111111,44.44444444444444,0)" xlink:href="#bh"/><use transform="matrix(0.1111111111111111,0,0,0.1111111111111111,66.66666666666666,0)" xlink:href="#aT"/><use transform="matrix(0.1111111111111111,0,0,0.1111111111111111,75.44444444444443,0)" xlink:href="#aI"/><use transform="matrix(0.1111111111111111,0,0,0.1111111111111111,95.44444444444443,0)" xlink:href="#bi"/><use transform="matrix(0.1111111111111111,0,0,0.1111111111111111,117.66666666666666,0)" xlink:href="#aH"/></g><g id="I"><use transform="matrix(0.1111111111111111,0,0,0.1111111111111111,0,0)" xlink:href="#bh"/><use transform="matrix(0.1111111111111111,0,0,0.1111111111111111,22.22222222222222,0)" xlink:href="#aE"/><use transform="matrix(0.1111111111111111,0,0,0.1111111111111111,44.44444444444444,0)" xlink:href="#aE"/><use transform="matrix(0.1111111111111111,0,0,0.1111111111111111,66.66666666666666,0)" xlink:href="#aF"/><use transform="matrix(0.1111111111111111,0,0,0.1111111111111111,75.44444444444443,0)" xlink:href="#aG"/><use transform="matrix(0.1111111111111111,0,0,0.1111111111111111,97.66666666666666,0)" xlink:href="#aM"/><use transform="matrix(0.1111111111111111,0,0,0.1111111111111111,119.88888888888889,0)" xlink:href="#aO"/></g><g id="J"><use transform="matrix(0.1111111111111111,0,0,0.1111111111111111,0,0)" xlink:href="#aI"/><use transform="matrix(0.1111111111111111,0,0,0.1111111111111111,20,0)" xlink:href="#aU"/><use transform="matrix(0.1111111111111111,0,0,0.1111111111111111,42.22222222222222,0)" xlink:href="#bh"/><use transform="matrix(0.1111111111111111,0,0,0.1111111111111111,64.44444444444444,0)" xlink:href="#aJ"/><use transform="matrix(0.1111111111111111,0,0,0.1111111111111111,75.55555555555556,0)" xlink:href="#aT"/><use transform="matrix(0.1111111111111111,0,0,0.1111111111111111,84.33333333333333,0)" xlink:href="#aJ"/><use transform="matrix(0.1111111111111111,0,0,0.1111111111111111,95.44444444444444,0)" xlink:href="#aT"/><use transform="matrix(0.1111111111111111,0,0,0.1111111111111111,104.22222222222221,0)" xlink:href="#aF"/><use transform="matrix(0.1111111111111111,0,0,0.1111111111111111,112.99999999999999,0)" xlink:href="#aG"/><use transform="matrix(0.1111111111111111,0,0,0.1111111111111111,135.2222222222222,0)" xlink:href="#aH"/></g><path fill="#282c33" d="M96-169c-40 0-48 33-48 73s9 75 48 75c24 0 41-14 43-38l32 2c-6 37-31 61-74 61-59 0-76-41-82-99-10-93 101-131 147-64 4 7 5 14 7 22l-32 3c-4-21-16-35-41-35" id="bj"/><g id="K"><use transform="matrix(0.1111111111111111,0,0,0.1111111111111111,0,0)" xlink:href="#aK"/><use transform="matrix(0.1111111111111111,0,0,0.1111111111111111,22.22222222222222,0)" xlink:href="#aG"/><use transform="matrix(0.1111111111111111,0,0,0.1111111111111111,44.44444444444444,0)" xlink:href="#aI"/><use transform="matrix(0.1111111111111111,0,0,0.1111111111111111,64.44444444444444,0)" xlink:href="#bj"/><use transform="matrix(0.1111111111111111,0,0,0.1111111111111111,84.44444444444444,0)" xlink:href="#aD"/><use transform="matrix(0.1111111111111111,0,0,0.1111111111111111,97.66666666666666,0)" xlink:href="#aT"/><use transform="matrix(0.1111111111111111,0,0,0.1111111111111111,106.44444444444443,0)" xlink:href="#aL"/><use transform="matrix(0.1111111111111111,0,0,0.1111111111111111,128.66666666666666,0)" xlink:href="#aJ"/><use transform="matrix(0.1111111111111111,0,0,0.1111111111111111,139.77777777777777,0)" xlink:href="#aT"/><use transform="matrix(0.1111111111111111,0,0,0.1111111111111111,148.55555555555554,0)" xlink:href="#aE"/><use transform="matrix(0.1111111111111111,0,0,0.1111111111111111,170.77777777777777,0)" xlink:href="#aO"/><use transform="matrix(0.1111111111111111,0,0,0.1111111111111111,193,0)" xlink:href="#aH"/></g><g id="L"><use transform="matrix(0.1111111111111111,0,0,0.1111111111111111,0,0)" xlink:href="#aT"/><use transform="matrix(0.1111111111111111,0,0,0.1111111111111111,8.777777777777777,0)" xlink:href="#aN"/><use transform="matrix(0.1111111111111111,0,0,0.1111111111111111,42,0)" xlink:href="#aM"/><use transform="matrix(0.1111111111111111,0,0,0.1111111111111111,64.22222222222223,0)" xlink:href="#bf"/><use transform="matrix(0.1111111111111111,0,0,0.1111111111111111,86.44444444444446,0)" xlink:href="#aG"/><use transform="matrix(0.1111111111111111,0,0,0.1111111111111111,108.66666666666669,0)" xlink:href="#aH"/></g><g id="M"><use transform="matrix(0.1111111111111111,0,0,0.1111111111111111,0,0)" xlink:href="#aT"/><use transform="matrix(0.1111111111111111,0,0,0.1111111111111111,8.777777777777777,0)" xlink:href="#aN"/><use transform="matrix(0.1111111111111111,0,0,0.1111111111111111,42,0)" xlink:href="#aM"/><use transform="matrix(0.1111111111111111,0,0,0.1111111111111111,64.22222222222223,0)" xlink:href="#bf"/><use transform="matrix(0.1111111111111111,0,0,0.1111111111111111,86.44444444444446,0)" xlink:href="#aG"/></g><g id="N"><use transform="matrix(0.1111111111111111,0,0,0.1111111111111111,0,0)" xlink:href="#aT"/><use transform="matrix(0.1111111111111111,0,0,0.1111111111111111,8.777777777777777,0)" xlink:href="#aI"/><use transform="matrix(0.1111111111111111,0,0,0.1111111111111111,28.777777777777775,0)" xlink:href="#aW"/><use transform="matrix(0.1111111111111111,0,0,0.1111111111111111,51,0)" xlink:href="#aV"/><use transform="matrix(0.1111111111111111,0,0,0.1111111111111111,62.11111111111112,0)" xlink:href="#aT"/><use transform="matrix(0.1111111111111111,0,0,0.1111111111111111,70.88888888888889,0)" xlink:href="#aO"/><use transform="matrix(0.1111111111111111,0,0,0.1111111111111111,93.11111111111111,0)" xlink:href="#aT"/><use transform="matrix(0.1111111111111111,0,0,0.1111111111111111,101.88888888888889,0)" xlink:href="#aI"/><use transform="matrix(0.1111111111111111,0,0,0.1111111111111111,121.88888888888889,0)" xlink:href="#bi"/><use transform="matrix(0.1111111111111111,0,0,0.1111111111111111,144.11111111111111,0)" xlink:href="#aG"/><use transform="matrix(0.1111111111111111,0,0,0.1111111111111111,166.33333333333334,0)" xlink:href="#aK"/><use transform="matrix(0.1111111111111111,0,0,0.1111111111111111,188.55555555555557,0)" xlink:href="#aH"/></g><g id="O"><use transform="matrix(0.1111111111111111,0,0,0.1111111111111111,0,0)" xlink:href="#bh"/><use transform="matrix(0.1111111111111111,0,0,0.1111111111111111,22.22222222222222,0)" xlink:href="#aE"/><use transform="matrix(0.1111111111111111,0,0,0.1111111111111111,44.44444444444444,0)" xlink:href="#aE"/><use transform="matrix(0.1111111111111111,0,0,0.1111111111111111,66.66666666666666,0)" xlink:href="#aF"/><use transform="matrix(0.1111111111111111,0,0,0.1111111111111111,75.44444444444443,0)" xlink:href="#aG"/><use transform="matrix(0.1111111111111111,0,0,0.1111111111111111,97.66666666666666,0)" xlink:href="#aM"/><use transform="matrix(0.1111111111111111,0,0,0.1111111111111111,119.88888888888889,0)" xlink:href="#aO"/></g><path d="M27 0v-27h64v-190l-56 39v-29l58-41h29v221h61V0H27" id="bk"/><g id="P"><use transform="matrix(0.09320987654320984,0,0,0.09320987654320984,0,0)" xlink:href="#bk"/><use transform="matrix(0.09320987654320984,0,0,0.09320987654320984,18.641975308641968,0)" xlink:href="#bb"/><use transform="matrix(0.09320987654320984,0,0,0.09320987654320984,27.96296296296295,0)" xlink:href="#bb"/><use transform="matrix(0.09320987654320984,0,0,0.09320987654320984,37.283950617283935,0)" xlink:href="#bk"/></g><g id="Q"><use transform="matrix(0.09938271604938267,0,0,0.09938271604938267,0,0)" xlink:href="#ba"/><use transform="matrix(0.09938271604938267,0,0,0.09938271604938267,19.876543209876534,0)" xlink:href="#bb"/><use transform="matrix(0.09938271604938267,0,0,0.09938271604938267,29.814814814814802,0)" xlink:href="#bb"/><use transform="matrix(0.09938271604938267,0,0,0.09938271604938267,39.75308641975307,0)" xlink:href="#bc"/></g><g id="R"><use transform="matrix(0.09876543209876544,0,0,0.09876543209876544,0,0)" xlink:href="#bk"/><use transform="matrix(0.09876543209876544,0,0,0.09876543209876544,19.75308641975309,0)" xlink:href="#bb"/><use transform="matrix(0.09876543209876544,0,0,0.09876543209876544,29.629629629629633,0)" xlink:href="#bb"/><use transform="matrix(0.09876543209876544,0,0,0.09876543209876544,39.50617283950618,0)" xlink:href="#bk"/></g><path fill="#282c33" d="M212-179c-10-28-35-45-73-45-59 0-87 40-87 99 0 60 29 101 89 101 43 0 62-24 78-52l27 14C228-24 195 4 139 4 59 4 22-46 18-125c-6-104 99-153 187-111 19 9 31 26 39 46" id="bl"/><g id="S"><use transform="matrix(0.13024691358024676,0,0,0.13024691358024676,0,0)" xlink:href="#bl"/><use transform="matrix(0.13024691358024676,0,0,0.13024691358024676,33.73395061728391,0)" xlink:href="#aE"/><use transform="matrix(0.13024691358024676,0,0,0.13024691358024676,59.78333333333326,0)" xlink:href="#aM"/><use transform="matrix(0.13024691358024676,0,0,0.13024691358024676,85.83271604938261,0)" xlink:href="#bj"/><use transform="matrix(0.13024691358024676,0,0,0.13024691358024676,109.27716049382703,0)" xlink:href="#bi"/></g><g id="T"><use transform="matrix(0.09938271604938267,0,0,0.09938271604938267,0,0)" xlink:href="#bk"/><use transform="matrix(0.09938271604938267,0,0,0.09938271604938267,19.876543209876534,0)" xlink:href="#bb"/><use transform="matrix(0.09938271604938267,0,0,0.09938271604938267,29.814814814814802,0)" xlink:href="#bb"/><use transform="matrix(0.09938271604938267,0,0,0.09938271604938267,39.75308641975307,0)" xlink:href="#bk"/></g><path fill="#282c33" d="M146-102V0H94v-102L6-248h54l60 105 60-105h54" id="bm"/><g id="U"><use transform="matrix(0.15493827160493795,0,0,0.15493827160493795,0,0)" xlink:href="#aS"/><use transform="matrix(0.15493827160493795,0,0,0.15493827160493795,40.12901234567893,0)" xlink:href="#ax"/><use transform="matrix(0.15493827160493795,0,0,0.15493827160493795,80.25802469135786,0)" xlink:href="#aA"/><use transform="matrix(0.15493827160493795,0,0,0.15493827160493795,120.38703703703679,0)" xlink:href="#aR"/><use transform="matrix(0.15493827160493795,0,0,0.15493827160493795,157.5722222222219,0)" xlink:href="#ay"/><use transform="matrix(0.15493827160493795,0,0,0.15493827160493795,191.5037037037033,0)" xlink:href="#bm"/><use transform="matrix(0.15493827160493795,0,0,0.15493827160493795,228.6888888888884,0)" xlink:href="#aw"/><use transform="matrix(0.15493827160493795,0,0,0.15493827160493795,265.8740740740735,0)" xlink:href="#aR"/></g><g id="V"><use transform="matrix(0.11172839506172824,0,0,0.11172839506172824,0,0)" xlink:href="#aO"/><use transform="matrix(0.11172839506172824,0,0,0.11172839506172824,22.34567901234565,0)" xlink:href="#aM"/><use transform="matrix(0.11172839506172824,0,0,0.11172839506172824,44.6913580246913,0)" xlink:href="#aN"/><use transform="matrix(0.11172839506172824,0,0,0.11172839506172824,78.09814814814804,0)" xlink:href="#aG"/><use transform="matrix(0.11172839506172824,0,0,0.11172839506172824,100.4438271604937,0)" xlink:href="#aH"/></g><g id="W"><use transform="matrix(0.11172839506172824,0,0,0.11172839506172824,0,0)" xlink:href="#aD"/><use transform="matrix(0.11172839506172824,0,0,0.11172839506172824,13.29567901234566,0)" xlink:href="#aU"/><use transform="matrix(0.11172839506172824,0,0,0.11172839506172824,35.64135802469131,0)" xlink:href="#aF"/><use transform="matrix(0.11172839506172824,0,0,0.11172839506172824,44.46790123456784,0)" xlink:href="#aG"/><use transform="matrix(0.11172839506172824,0,0,0.11172839506172824,66.81358024691349,0)" xlink:href="#aH"/></g><g id="X"><use transform="matrix(0.11172839506172824,0,0,0.11172839506172824,0,0)" xlink:href="#aI"/><use transform="matrix(0.11172839506172824,0,0,0.11172839506172824,20.111111111111082,0)" xlink:href="#aJ"/><use transform="matrix(0.11172839506172824,0,0,0.11172839506172824,31.283950617283907,0)" xlink:href="#aD"/></g><g id="Y"><use transform="matrix(0.15493827160493795,0,0,0.15493827160493795,0,0)" xlink:href="#aS"/><use transform="matrix(0.15493827160493795,0,0,0.15493827160493795,40.12901234567893,0)" xlink:href="#ax"/><use transform="matrix(0.15493827160493795,0,0,0.15493827160493795,80.25802469135786,0)" xlink:href="#aA"/><use transform="matrix(0.15493827160493795,0,0,0.15493827160493795,120.38703703703679,0)" xlink:href="#aR"/></g><g id="Z"><use transform="matrix(0.11172839506172824,0,0,0.11172839506172824,0,0)" xlink:href="#aJ"/><use transform="matrix(0.11172839506172824,0,0,0.11172839506172824,11.172839506172824,0)" xlink:href="#aT"/><use transform="matrix(0.11172839506172824,0,0,0.11172839506172824,19.999382716049354,0)" xlink:href="#aN"/><use transform="matrix(0.11172839506172824,0,0,0.11172839506172824,53.4061728395061,0)" xlink:href="#aG"/><use transform="matrix(0.11172839506172824,0,0,0.11172839506172824,75.75185185185174,0)" xlink:href="#aW"/><use transform="matrix(0.11172839506172824,0,0,0.11172839506172824,98.09753086419738,0)" xlink:href="#aF"/><use transform="matrix(0.11172839506172824,0,0,0.11172839506172824,106.92407407407391,0)" xlink:href="#aT"/><use transform="matrix(0.11172839506172824,0,0,0.11172839506172824,115.75061728395046,0)" xlink:href="#aN"/><use transform="matrix(0.11172839506172824,0,0,0.11172839506172824,149.1574074074072,0)" xlink:href="#aT"/><use transform="matrix(0.11172839506172824,0,0,0.11172839506172824,157.9839506172837,0)" xlink:href="#aJ"/><use transform="matrix(0.11172839506172824,0,0,0.11172839506172824,169.15679012345655,0)" xlink:href="#aH"/></g><g id="aa"><use transform="matrix(0.11172839506172824,0,0,0.11172839506172824,0,0)" xlink:href="#aJ"/><use transform="matrix(0.11172839506172824,0,0,0.11172839506172824,11.172839506172824,0)" xlink:href="#aT"/><use transform="matrix(0.11172839506172824,0,0,0.11172839506172824,19.999382716049354,0)" xlink:href="#aN"/><use transform="matrix(0.11172839506172824,0,0,0.11172839506172824,53.4061728395061,0)" xlink:href="#aG"/></g><g id="ab"><use transform="matrix(0.09938271604938263,0,0,0.09938271604938263,0,0)" xlink:href="#ba"/><use transform="matrix(0.09938271604938263,0,0,0.09938271604938263,19.876543209876527,0)" xlink:href="#bb"/><use transform="matrix(0.09938271604938263,0,0,0.09938271604938263,29.81481481481479,0)" xlink:href="#bb"/><use transform="matrix(0.09938271604938263,0,0,0.09938271604938263,39.75308641975305,0)" xlink:href="#bc"/></g><g id="ac"><use transform="matrix(0.09938271604938263,0,0,0.09938271604938263,0,0)" xlink:href="#bk"/><use transform="matrix(0.09938271604938263,0,0,0.09938271604938263,19.876543209876527,0)" xlink:href="#bb"/><use transform="matrix(0.09938271604938263,0,0,0.09938271604938263,29.81481481481479,0)" xlink:href="#bb"/><use transform="matrix(0.09938271604938263,0,0,0.09938271604938263,39.75308641975305,0)" xlink:href="#bk"/></g><g id="ad"><use transform="matrix(0.09938271604938267,0,0,0.09938271604938267,0,0)" xlink:href="#bk"/><use transform="matrix(0.09938271604938267,0,0,0.09938271604938267,19.876543209876534,0)" xlink:href="#bb"/><use transform="matrix(0.09938271604938267,0,0,0.09938271604938267,29.814814814814802,0)" xlink:href="#bb"/><use transform="matrix(0.09938271604938267,0,0,0.09938271604938267,39.75308641975307,0)" xlink:href="#bc"/></g><path fill="#282c33" d="M186 0v-106H76V0H24v-248h52v99h110v-99h50V0h-50" id="bn"/><path fill="#282c33" d="M195 0l-88-114-31 24V0H24v-248h52v113l112-113h60L142-143 257 0h-62" id="bo"/><g id="ae"><use transform="matrix(0.15493827160493795,0,0,0.15493827160493795,0,0)" xlink:href="#aA"/><use transform="matrix(0.15493827160493795,0,0,0.15493827160493795,40.12901234567893,0)" xlink:href="#bn"/><use transform="matrix(0.15493827160493795,0,0,0.15493827160493795,80.25802469135786,0)" xlink:href="#aR"/><use transform="matrix(0.15493827160493795,0,0,0.15493827160493795,117.44320987654297,0)" xlink:href="#aA"/><use transform="matrix(0.15493827160493795,0,0,0.15493827160493795,157.5722222222219,0)" xlink:href="#bo"/><use transform="matrix(0.15493827160493795,0,0,0.15493827160493795,197.70123456790083,0)" xlink:href="#aw"/><use transform="matrix(0.15493827160493795,0,0,0.15493827160493795,234.88641975308593,0)" xlink:href="#aY"/><use transform="matrix(0.15493827160493795,0,0,0.15493827160493795,278.26913580246855,0)" xlink:href="#az"/><use transform="matrix(0.15493827160493795,0,0,0.15493827160493795,293.7629629629624,0)" xlink:href="#aB"/><use transform="matrix(0.15493827160493795,0,0,0.15493827160493795,333.8919753086413,0)" xlink:href="#ay"/></g><g id="af"><use transform="matrix(0.11172839506172824,0,0,0.11172839506172824,0,0)" xlink:href="#aO"/><use transform="matrix(0.11172839506172824,0,0,0.11172839506172824,22.34567901234565,0)" xlink:href="#aU"/><use transform="matrix(0.11172839506172824,0,0,0.11172839506172824,44.6913580246913,0)" xlink:href="#aN"/><use transform="matrix(0.11172839506172824,0,0,0.11172839506172824,78.09814814814804,0)" xlink:href="#bh"/><use transform="matrix(0.11172839506172824,0,0,0.11172839506172824,100.4438271604937,0)" xlink:href="#aG"/><use transform="matrix(0.11172839506172824,0,0,0.11172839506172824,122.78950617283934,0)" xlink:href="#aD"/><use transform="matrix(0.11172839506172824,0,0,0.11172839506172824,136.085185185185,0)" xlink:href="#aH"/></g><g id="ag"><use transform="matrix(0.11172839506172824,0,0,0.11172839506172824,0,0)" xlink:href="#aF"/><use transform="matrix(0.11172839506172824,0,0,0.11172839506172824,8.826543209876531,0)" xlink:href="#aE"/><use transform="matrix(0.11172839506172824,0,0,0.11172839506172824,31.172222222222178,0)" xlink:href="#aO"/><use transform="matrix(0.11172839506172824,0,0,0.11172839506172824,53.51790123456783,0)" xlink:href="#bf"/><use transform="matrix(0.11172839506172824,0,0,0.11172839506172824,75.86358024691347,0)" xlink:href="#aT"/><use transform="matrix(0.11172839506172824,0,0,0.11172839506172824,84.69012345679,0)" xlink:href="#aJ"/><use transform="matrix(0.11172839506172824,0,0,0.11172839506172824,95.86296296296283,0)" xlink:href="#aU"/><use transform="matrix(0.11172839506172824,0,0,0.11172839506172824,118.20864197530845,0)" xlink:href="#aK"/><use transform="matrix(0.11172839506172824,0,0,0.11172839506172824,140.5543209876541,0)" xlink:href="#aG"/><use transform="matrix(0.11172839506172824,0,0,0.11172839506172824,162.89999999999975,0)" xlink:href="#aH"/></g><g id="ah"><use transform="matrix(0.11172839506172824,0,0,0.11172839506172824,0,0)" xlink:href="#aV"/><use transform="matrix(0.11172839506172824,0,0,0.11172839506172824,11.172839506172824,0)" xlink:href="#aF"/><use transform="matrix(0.11172839506172824,0,0,0.11172839506172824,19.999382716049354,0)" xlink:href="#aE"/><use transform="matrix(0.11172839506172824,0,0,0.11172839506172824,42.345061728395,0)" xlink:href="#aM"/><use transform="matrix(0.11172839506172824,0,0,0.11172839506172824,64.69074074074065,0)" xlink:href="#aJ"/></g><g id="ai"><use transform="matrix(0.11172839506172824,0,0,0.11172839506172824,0,0)" xlink:href="#aF"/><use transform="matrix(0.11172839506172824,0,0,0.11172839506172824,8.826543209876531,0)" xlink:href="#aM"/><use transform="matrix(0.11172839506172824,0,0,0.11172839506172824,31.172222222222178,0)" xlink:href="#aJ"/><use transform="matrix(0.11172839506172824,0,0,0.11172839506172824,42.34506172839501,0)" xlink:href="#aT"/><use transform="matrix(0.11172839506172824,0,0,0.11172839506172824,51.17160493827154,0)" xlink:href="#aJ"/><use transform="matrix(0.11172839506172824,0,0,0.11172839506172824,62.344444444444356,0)" xlink:href="#aU"/><use transform="matrix(0.11172839506172824,0,0,0.11172839506172824,84.69012345679002,0)" xlink:href="#aK"/><use transform="matrix(0.11172839506172824,0,0,0.11172839506172824,107.03580246913566,0)" xlink:href="#aG"/><use transform="matrix(0.11172839506172824,0,0,0.11172839506172824,129.3814814814813,0)" xlink:href="#aH"/></g><g id="aj"><use transform="matrix(0.11172839506172824,0,0,0.11172839506172824,0,0)" xlink:href="#aI"/><use transform="matrix(0.11172839506172824,0,0,0.11172839506172824,20.111111111111082,0)" xlink:href="#bj"/><use transform="matrix(0.11172839506172824,0,0,0.11172839506172824,40.222222222222165,0)" xlink:href="#aE"/><use transform="matrix(0.11172839506172824,0,0,0.11172839506172824,62.56790123456781,0)" xlink:href="#aD"/><use transform="matrix(0.11172839506172824,0,0,0.11172839506172824,75.86358024691347,0)" xlink:href="#aG"/><use transform="matrix(0.11172839506172824,0,0,0.11172839506172824,98.20925925925911,0)" xlink:href="#aH"/></g><g id="ak"><use transform="matrix(0.11172839506172824,0,0,0.11172839506172824,0,0)" xlink:href="#aT"/><use transform="matrix(0.11172839506172824,0,0,0.11172839506172824,8.826543209876531,0)" xlink:href="#aO"/><use transform="matrix(0.11172839506172824,0,0,0.11172839506172824,31.172222222222178,0)" xlink:href="#aJ"/></g><path fill="#282c33" d="M24-248c120-7 223 5 221 122C244-46 201 0 124 0H24v-248zM76-40c74 7 117-18 117-86 0-67-45-88-117-82v168" id="bp"/><g id="al"><use transform="matrix(0.15493827160493795,0,0,0.15493827160493795,0,0)" xlink:href="#aA"/><use transform="matrix(0.15493827160493795,0,0,0.15493827160493795,40.12901234567893,0)" xlink:href="#bn"/><use transform="matrix(0.15493827160493795,0,0,0.15493827160493795,80.25802469135786,0)" xlink:href="#aR"/><use transform="matrix(0.15493827160493795,0,0,0.15493827160493795,117.44320987654297,0)" xlink:href="#aA"/><use transform="matrix(0.15493827160493795,0,0,0.15493827160493795,157.5722222222219,0)" xlink:href="#bo"/><use transform="matrix(0.15493827160493795,0,0,0.15493827160493795,197.70123456790083,0)" xlink:href="#aw"/><use transform="matrix(0.15493827160493795,0,0,0.15493827160493795,234.88641975308593,0)" xlink:href="#aY"/><use transform="matrix(0.15493827160493795,0,0,0.15493827160493795,278.26913580246855,0)" xlink:href="#az"/><use transform="matrix(0.15493827160493795,0,0,0.15493827160493795,293.7629629629624,0)" xlink:href="#aB"/><use transform="matrix(0.15493827160493795,0,0,0.15493827160493795,333.8919753086413,0)" xlink:href="#ay"/><use transform="matrix(0.15493827160493795,0,0,0.15493827160493795,367.8234567901227,0)" xlink:href="#aZ"/><use transform="matrix(0.15493827160493795,0,0,0.15493827160493795,398.8111111111103,0)" xlink:href="#aS"/><use transform="matrix(0.15493827160493795,0,0,0.15493827160493795,438.9401234567892,0)" xlink:href="#aR"/><use transform="matrix(0.15493827160493795,0,0,0.15493827160493795,476.1253086419743,0)" xlink:href="#aA"/><use transform="matrix(0.15493827160493795,0,0,0.15493827160493795,516.2543209876533,0)" xlink:href="#aY"/><use transform="matrix(0.15493827160493795,0,0,0.15493827160493795,559.637037037036,0)" xlink:href="#aS"/><use transform="matrix(0.15493827160493795,0,0,0.15493827160493795,599.7660493827149,0)" xlink:href="#bp"/></g><g id="am"><use transform="matrix(0.11172839506172824,0,0,0.11172839506172824,0,0)" xlink:href="#aF"/><use transform="matrix(0.11172839506172824,0,0,0.11172839506172824,8.826543209876531,0)" xlink:href="#aE"/><use transform="matrix(0.11172839506172824,0,0,0.11172839506172824,31.172222222222178,0)" xlink:href="#aO"/><use transform="matrix(0.11172839506172824,0,0,0.11172839506172824,53.51790123456783,0)" xlink:href="#bf"/><use transform="matrix(0.11172839506172824,0,0,0.11172839506172824,75.86358024691347,0)" xlink:href="#aJ"/><use transform="matrix(0.11172839506172824,0,0,0.11172839506172824,87.03641975308629,0)" xlink:href="#aT"/><use transform="matrix(0.11172839506172824,0,0,0.11172839506172824,95.86296296296283,0)" xlink:href="#aJ"/><use transform="matrix(0.11172839506172824,0,0,0.11172839506172824,107.03580246913565,0)" xlink:href="#aU"/><use transform="matrix(0.11172839506172824,0,0,0.11172839506172824,129.3814814814813,0)" xlink:href="#aK"/><use transform="matrix(0.11172839506172824,0,0,0.11172839506172824,151.72716049382694,0)" xlink:href="#aG"/><use transform="matrix(0.11172839506172824,0,0,0.11172839506172824,174.07283950617258,0)" xlink:href="#aH"/></g><g id="an"><use transform="matrix(0.11172839506172824,0,0,0.11172839506172824,0,0)" xlink:href="#aT"/><use transform="matrix(0.11172839506172824,0,0,0.11172839506172824,8.826543209876531,0)" xlink:href="#aI"/><use transform="matrix(0.11172839506172824,0,0,0.11172839506172824,28.937654320987615,0)" xlink:href="#aW"/><use transform="matrix(0.11172839506172824,0,0,0.11172839506172824,51.28333333333326,0)" xlink:href="#bj"/><use transform="matrix(0.11172839506172824,0,0,0.11172839506172824,71.39444444444435,0)" xlink:href="#aE"/><use transform="matrix(0.11172839506172824,0,0,0.11172839506172824,93.74012345679,0)" xlink:href="#aD"/><use transform="matrix(0.11172839506172824,0,0,0.11172839506172824,107.03580246913566,0)" xlink:href="#aD"/><use transform="matrix(0.11172839506172824,0,0,0.11172839506172824,120.33148148148132,0)" xlink:href="#aG"/><use transform="matrix(0.11172839506172824,0,0,0.11172839506172824,142.67716049382696,0)" xlink:href="#bj"/><use transform="matrix(0.11172839506172824,0,0,0.11172839506172824,162.78827160493805,0)" xlink:href="#aJ"/><use transform="matrix(0.11172839506172824,0,0,0.11172839506172824,173.96111111111088,0)" xlink:href="#aH"/></g><g id="ao"><use transform="matrix(0.11172839506172824,0,0,0.11172839506172824,0,0)" xlink:href="#bh"/><use transform="matrix(0.11172839506172824,0,0,0.11172839506172824,22.34567901234565,0)" xlink:href="#aE"/><use transform="matrix(0.11172839506172824,0,0,0.11172839506172824,44.6913580246913,0)" xlink:href="#aE"/><use transform="matrix(0.11172839506172824,0,0,0.11172839506172824,67.03703703703695,0)" xlink:href="#aF"/><use transform="matrix(0.11172839506172824,0,0,0.11172839506172824,75.86358024691349,0)" xlink:href="#aG"/><use transform="matrix(0.11172839506172824,0,0,0.11172839506172824,98.20925925925914,0)" xlink:href="#aM"/><use transform="matrix(0.11172839506172824,0,0,0.11172839506172824,120.55493827160477,0)" xlink:href="#aO"/></g><g id="ap"><use transform="matrix(0.15493827160493795,0,0,0.15493827160493795,0,0)" xlink:href="#aS"/><use transform="matrix(0.15493827160493795,0,0,0.15493827160493795,40.12901234567893,0)" xlink:href="#ax"/><use transform="matrix(0.15493827160493795,0,0,0.15493827160493795,80.25802469135786,0)" xlink:href="#aA"/><use transform="matrix(0.15493827160493795,0,0,0.15493827160493795,120.38703703703679,0)" xlink:href="#aR"/><use transform="matrix(0.15493827160493795,0,0,0.15493827160493795,157.5722222222219,0)" xlink:href="#aZ"/><use transform="matrix(0.15493827160493795,0,0,0.15493827160493795,188.5598765432095,0)" xlink:href="#aS"/><use transform="matrix(0.15493827160493795,0,0,0.15493827160493795,228.6888888888884,0)" xlink:href="#aP"/><use transform="matrix(0.15493827160493795,0,0,0.15493827160493795,268.81790123456733,0)" xlink:href="#aB"/><use transform="matrix(0.15493827160493795,0,0,0.15493827160493795,308.94691358024625,0)" xlink:href="#aB"/><use transform="matrix(0.15493827160493795,0,0,0.15493827160493795,349.0759259259251,0)" xlink:href="#aR"/><use transform="matrix(0.15493827160493795,0,0,0.15493827160493795,386.2611111111102,0)" xlink:href="#aS"/></g><g id="aq"><use transform="matrix(0.11172839506172824,0,0,0.11172839506172824,0,0)" xlink:href="#aJ"/><use transform="matrix(0.11172839506172824,0,0,0.11172839506172824,11.172839506172824,0)" xlink:href="#aE"/><use transform="matrix(0.11172839506172824,0,0,0.11172839506172824,33.518518518518476,0)" xlink:href="#aJ"/><use transform="matrix(0.11172839506172824,0,0,0.11172839506172824,44.6913580246913,0)" xlink:href="#aM"/><use transform="matrix(0.11172839506172824,0,0,0.11172839506172824,67.03703703703695,0)" xlink:href="#aF"/><use transform="matrix(0.11172839506172824,0,0,0.11172839506172824,75.86358024691349,0)" xlink:href="#aW"/><use transform="matrix(0.11172839506172824,0,0,0.11172839506172824,98.20925925925914,0)" xlink:href="#aJ"/><use transform="matrix(0.11172839506172824,0,0,0.11172839506172824,109.38209876543196,0)" xlink:href="#aT"/><use transform="matrix(0.11172839506172824,0,0,0.11172839506172824,118.20864197530851,0)" xlink:href="#aN"/><use transform="matrix(0.11172839506172824,0,0,0.11172839506172824,151.61543209876524,0)" xlink:href="#aG"/><use transform="matrix(0.11172839506172824,0,0,0.11172839506172824,173.96111111111088,0)" xlink:href="#aH"/></g><g id="ar"><use transform="matrix(0.11172839506172824,0,0,0.11172839506172824,0,0)" xlink:href="#aJ"/><use transform="matrix(0.11172839506172824,0,0,0.11172839506172824,11.172839506172824,0)" xlink:href="#aT"/><use transform="matrix(0.11172839506172824,0,0,0.11172839506172824,19.999382716049354,0)" xlink:href="#aN"/><use transform="matrix(0.11172839506172824,0,0,0.11172839506172824,53.4061728395061,0)" xlink:href="#aG"/></g><g id="as"><use transform="matrix(0.11172839506172824,0,0,0.11172839506172824,0,0)" xlink:href="#aT"/><use transform="matrix(0.11172839506172824,0,0,0.11172839506172824,8.826543209876531,0)" xlink:href="#aI"/><use transform="matrix(0.11172839506172824,0,0,0.11172839506172824,28.937654320987615,0)" xlink:href="#aW"/><use transform="matrix(0.11172839506172824,0,0,0.11172839506172824,51.28333333333326,0)" xlink:href="#aV"/><use transform="matrix(0.11172839506172824,0,0,0.11172839506172824,62.45617283950609,0)" xlink:href="#aT"/><use transform="matrix(0.11172839506172824,0,0,0.11172839506172824,71.28271604938261,0)" xlink:href="#aO"/><use transform="matrix(0.11172839506172824,0,0,0.11172839506172824,93.62839506172827,0)" xlink:href="#aT"/><use transform="matrix(0.11172839506172824,0,0,0.11172839506172824,102.4549382716048,0)" xlink:href="#aI"/><use transform="matrix(0.11172839506172824,0,0,0.11172839506172824,122.56604938271587,0)" xlink:href="#bi"/><use transform="matrix(0.11172839506172824,0,0,0.11172839506172824,144.91172839506154,0)" xlink:href="#aG"/><use transform="matrix(0.11172839506172824,0,0,0.11172839506172824,167.2574074074072,0)" xlink:href="#aK"/><use transform="matrix(0.11172839506172824,0,0,0.11172839506172824,189.60308641975283,0)" xlink:href="#aH"/></g><g id="at"><use transform="matrix(0.11172839506172824,0,0,0.11172839506172824,0,0)" xlink:href="#bh"/><use transform="matrix(0.11172839506172824,0,0,0.11172839506172824,22.34567901234565,0)" xlink:href="#aE"/><use transform="matrix(0.11172839506172824,0,0,0.11172839506172824,44.6913580246913,0)" xlink:href="#aE"/><use transform="matrix(0.11172839506172824,0,0,0.11172839506172824,67.03703703703695,0)" xlink:href="#aF"/><use transform="matrix(0.11172839506172824,0,0,0.11172839506172824,75.86358024691349,0)" xlink:href="#aG"/><use transform="matrix(0.11172839506172824,0,0,0.11172839506172824,98.20925925925914,0)" xlink:href="#aM"/><use transform="matrix(0.11172839506172824,0,0,0.11172839506172824,120.55493827160477,0)" xlink:href="#aO"/></g><path fill="#282c33" d="M143 0L79-87 56-68V0H24v-261h32v163l83-92h37l-77 82L181 0h-38" id="bq"/><g id="au"><use transform="matrix(0.11172839506172824,0,0,0.11172839506172824,0,0)" xlink:href="#bj"/><use transform="matrix(0.11172839506172824,0,0,0.11172839506172824,20.111111111111082,0)" xlink:href="#aE"/><use transform="matrix(0.11172839506172824,0,0,0.11172839506172824,42.45679012345673,0)" xlink:href="#aD"/><use transform="matrix(0.11172839506172824,0,0,0.11172839506172824,55.752469135802386,0)" xlink:href="#aD"/><use transform="matrix(0.11172839506172824,0,0,0.11172839506172824,69.04814814814804,0)" xlink:href="#aG"/><use transform="matrix(0.11172839506172824,0,0,0.11172839506172824,91.39382716049369,0)" xlink:href="#bj"/><use transform="matrix(0.11172839506172824,0,0,0.11172839506172824,111.50493827160477,0)" xlink:href="#aJ"/><use transform="matrix(0.11172839506172824,0,0,0.11172839506172824,122.67777777777758,0)" xlink:href="#aW"/><use transform="matrix(0.11172839506172824,0,0,0.11172839506172824,145.02345679012325,0)" xlink:href="#bj"/><use transform="matrix(0.11172839506172824,0,0,0.11172839506172824,165.13456790123433,0)" xlink:href="#bi"/><use transform="matrix(0.11172839506172824,0,0,0.11172839506172824,187.48024691357998,0)" xlink:href="#aG"/><use transform="matrix(0.11172839506172824,0,0,0.11172839506172824,209.82592592592562,0)" xlink:href="#bj"/><use transform="matrix(0.11172839506172824,0,0,0.11172839506172824,229.93703703703673,0)" xlink:href="#bq"/><use transform="matrix(0.11172839506172824,0,0,0.11172839506172824,250.04814814814782,0)" xlink:href="#aL"/><use transform="matrix(0.11172839506172824,0,0,0.11172839506172824,272.39382716049346,0)" xlink:href="#aE"/><use transform="matrix(0.11172839506172824,0,0,0.11172839506172824,294.7395061728391,0)" xlink:href="#aT"/><use transform="matrix(0.11172839506172824,0,0,0.11172839506172824,303.5660493827157,0)" xlink:href="#aO"/><use transform="matrix(0.11172839506172824,0,0,0.11172839506172824,325.91172839506135,0)" xlink:href="#aJ"/><use transform="matrix(0.11172839506172824,0,0,0.11172839506172824,337.08456790123415,0)" xlink:href="#aI"/><use transform="matrix(0.11172839506172824,0,0,0.11172839506172824,357.19567901234524,0)" xlink:href="#aH"/></g><path fill="#282c33" d="M87 75C49 33 22-17 22-94c0-76 28-126 65-167h31c-38 41-64 92-64 168S80 34 118 75H87" id="br"/><path fill="#282c33" d="M33-261c38 41 65 92 65 168S71 34 33 75H2C39 34 66-17 66-93S39-220 2-261h31" id="bs"/><g id="av"><use transform="matrix(0.11172839506172824,0,0,0.11172839506172824,0,0)" xlink:href="#aF"/><use transform="matrix(0.11172839506172824,0,0,0.11172839506172824,8.826543209876531,0)" xlink:href="#aT"/><use transform="matrix(0.11172839506172824,0,0,0.11172839506172824,17.653086419753063,0)" xlink:href="#aI"/><use transform="matrix(0.11172839506172824,0,0,0.11172839506172824,37.764197530864145,0)" xlink:href="#aJ"/><use transform="matrix(0.11172839506172824,0,0,0.11172839506172824,48.93703703703697,0)" xlink:href="#br"/><use transform="matrix(0.11172839506172824,0,0,0.11172839506172824,62.23271604938263,0)" xlink:href="#aT"/><use transform="matrix(0.11172839506172824,0,0,0.11172839506172824,71.05925925925916,0)" xlink:href="#aO"/><use transform="matrix(0.11172839506172824,0,0,0.11172839506172824,93.4049382716048,0)" xlink:href="#aJ"/><use transform="matrix(0.11172839506172824,0,0,0.11172839506172824,104.57777777777763,0)" xlink:href="#bs"/></g></defs></g></svg>